%TF.GenerationSoftware,KiCad,Pcbnew,9.0.4*%
%TF.CreationDate,2025-10-20T19:51:49+03:00*%
%TF.ProjectId,New Project_d4730bb7df3c48b986d1d5e0e3a7b4b5,4e657720-5072-46f6-9a65-63745f643437,rev?*%
%TF.SameCoordinates,Original*%
%TF.FileFunction,Copper,L2,Bot*%
%TF.FilePolarity,Positive*%
%FSLAX46Y46*%
G04 Gerber Fmt 4.6, Leading zero omitted, Abs format (unit mm)*
G04 Created by KiCad (PCBNEW 9.0.4) date 2025-10-20 19:51:49*
%MOMM*%
%LPD*%
G01*
G04 APERTURE LIST*
%TA.AperFunction,ComponentPad*%
%ADD10R,1.574800X1.574800*%
%TD*%
%TA.AperFunction,ComponentPad*%
%ADD11O,2.600000X2.600000*%
%TD*%
%TA.AperFunction,ViaPad*%
%ADD12C,0.610000*%
%TD*%
G04 APERTURE END LIST*
D10*
%TO.P,XP1,1*%
%TO.N,DA1_3*%
X148979000Y-84219000D03*
%TD*%
%TO.P,XP2,1*%
%TO.N,DA8_6*%
X221750000Y-91712000D03*
%TD*%
%TO.P,XP3,1*%
%TO.N,XP3_1*%
X74430000Y-107333000D03*
%TD*%
%TO.P,XP4,1*%
%TO.N,R14_1*%
X74557000Y-111270000D03*
%TD*%
%TO.P,XP5,1*%
%TO.N,R15_1*%
X74557000Y-115080000D03*
%TD*%
%TO.P,XP6,1*%
%TO.N,R16_1*%
X74557000Y-118890000D03*
%TD*%
%TO.P,XP7,1*%
%TO.N,R17_1*%
X74430000Y-122700000D03*
%TD*%
%TO.P,XP8,1*%
%TO.N,R18_1*%
X74430000Y-126383000D03*
%TD*%
%TO.P,XP9,1*%
%TO.N,R19_1*%
X74430000Y-130320000D03*
%TD*%
%TO.P,XP10,1*%
%TO.N,R20_1*%
X74430000Y-134130000D03*
%TD*%
%TO.P,XP11,1*%
%TO.N,XP11_1*%
X81669000Y-76218000D03*
%TD*%
%TO.P,XP12,1*%
%TO.N,XP12_1*%
X76335000Y-77488000D03*
%TD*%
%TO.P,XP13,1*%
%TO.N,XP13_1*%
X72779000Y-80028000D03*
%TD*%
%TO.P,XP14,1*%
%TO.N,XP14_1*%
X69731000Y-82695000D03*
%TD*%
%TO.P,XP15,1*%
%TO.N,XP15_1*%
X69731000Y-85743000D03*
%TD*%
%TO.P,XP16,1*%
%TO.N,XP16_1*%
X72906000Y-88029000D03*
%TD*%
%TO.P,XP17,1*%
%TO.N,XP17_1*%
X76462000Y-90442000D03*
%TD*%
%TO.P,XP18,1*%
%TO.N,XP18_1*%
X81669000Y-92220000D03*
%TD*%
D11*
%TO.P,XT1,1*%
%TO.N,DA2_3*%
X178062000Y-85541100D03*
%TO.P,XT1,2*%
%TO.N,DA3_7*%
X178062000Y-89501200D03*
%TD*%
D10*
%TO.P,XP19,1*%
%TO.N,+5V*%
X84209000Y-106825000D03*
%TD*%
%TO.P,XP20,1*%
%TO.N,-5V*%
X90940000Y-133749000D03*
%TD*%
%TO.P,XP21,1*%
%TO.N,+5V*%
X98560000Y-80409000D03*
%TD*%
%TO.P,XP22,1*%
%TO.N,+5V*%
X161552000Y-77615000D03*
%TD*%
%TO.P,XP23,1*%
%TO.N,-5V*%
X153424000Y-89680000D03*
%TD*%
%TO.P,XP24,1*%
%TO.N,GND*%
X96020000Y-94252000D03*
%TD*%
%TO.P,XP25,1*%
%TO.N,GND*%
X90940000Y-128542000D03*
%TD*%
%TO.P,XP26,1*%
%TO.N,GND*%
X152916000Y-77869000D03*
%TD*%
D12*
%TO.N,GND*%
X177102000Y-80973000D03*
X173419000Y-89990000D03*
X164021000Y-87196000D03*
X215032000Y-77290100D03*
X181724100Y-91285000D03*
X159973900Y-90904000D03*
X165053900Y-95984000D03*
X147892100Y-75512100D03*
X147892100Y-80592100D03*
X147892100Y-90752000D03*
X147892100Y-95832000D03*
X152972100Y-75512100D03*
X152972100Y-80592100D03*
X152972100Y-95832000D03*
X158052000Y-75512100D03*
X158052000Y-80592100D03*
X158052000Y-95832000D03*
X163132000Y-75512100D03*
X168212000Y-75512100D03*
X183452000Y-95832000D03*
X188532000Y-75512100D03*
X188532000Y-90752000D03*
X188532000Y-95832000D03*
X193612000Y-75512100D03*
X193612000Y-90752000D03*
X193612000Y-95832000D03*
X198692000Y-75512100D03*
X198692000Y-90752000D03*
X198692000Y-95832000D03*
X203772000Y-75512100D03*
X203772000Y-90752000D03*
X203772000Y-95832000D03*
X208851900Y-75512100D03*
X208851900Y-85672000D03*
X208851900Y-90752000D03*
X208851900Y-95832000D03*
X213931900Y-85672000D03*
X213931900Y-90752000D03*
X213931900Y-95832000D03*
X219011900Y-75512100D03*
X219011900Y-95832000D03*
X224091900Y-75512100D03*
X224091900Y-80592100D03*
X224091900Y-95832000D03*
X229171900Y-75512100D03*
X229171900Y-95832000D03*
%TD*%
%TA.AperFunction,Conductor*%
%TO.N,GND*%
G36*
X232621621Y-74960502D02*
G01*
X232668114Y-75014158D01*
X232679500Y-75066500D01*
X232679500Y-99213500D01*
X232659498Y-99281621D01*
X232605842Y-99328114D01*
X232553500Y-99339500D01*
X147446500Y-99339500D01*
X147378379Y-99319498D01*
X147331886Y-99265842D01*
X147320500Y-99213500D01*
X147320500Y-88867530D01*
X152382100Y-88867530D01*
X152382100Y-90492463D01*
X152382101Y-90492473D01*
X152396865Y-90566700D01*
X152453116Y-90650884D01*
X152537297Y-90707133D01*
X152537299Y-90707134D01*
X152611533Y-90721900D01*
X154236466Y-90721899D01*
X154236469Y-90721898D01*
X154236473Y-90721898D01*
X154285726Y-90712101D01*
X154310701Y-90707134D01*
X154394884Y-90650884D01*
X154451134Y-90566701D01*
X154465900Y-90492467D01*
X154465899Y-89378858D01*
X176507500Y-89378858D01*
X176507500Y-89623542D01*
X176545777Y-89865213D01*
X176545778Y-89865218D01*
X176621386Y-90097916D01*
X176621388Y-90097921D01*
X176621389Y-90097922D01*
X176732474Y-90315939D01*
X176876295Y-90513891D01*
X177049308Y-90686904D01*
X177049311Y-90686906D01*
X177247264Y-90830728D01*
X177465279Y-90941812D01*
X177697981Y-91017421D01*
X177697982Y-91017421D01*
X177697987Y-91017423D01*
X177939658Y-91055700D01*
X177939661Y-91055700D01*
X178184339Y-91055700D01*
X178184342Y-91055700D01*
X178426013Y-91017423D01*
X178658721Y-90941812D01*
X178741704Y-90899530D01*
X220708100Y-90899530D01*
X220708100Y-92524463D01*
X220708101Y-92524473D01*
X220722865Y-92598700D01*
X220779116Y-92682884D01*
X220863297Y-92739133D01*
X220863299Y-92739134D01*
X220937533Y-92753900D01*
X222562466Y-92753899D01*
X222562469Y-92753898D01*
X222562473Y-92753898D01*
X222611726Y-92744101D01*
X222636701Y-92739134D01*
X222720884Y-92682884D01*
X222777134Y-92598701D01*
X222791900Y-92524467D01*
X222791899Y-90899534D01*
X222791898Y-90899530D01*
X222791898Y-90899526D01*
X222777134Y-90825299D01*
X222720883Y-90741115D01*
X222636702Y-90684866D01*
X222562467Y-90670100D01*
X220937536Y-90670100D01*
X220937526Y-90670101D01*
X220863299Y-90684865D01*
X220779115Y-90741116D01*
X220722866Y-90825297D01*
X220708100Y-90899530D01*
X178741704Y-90899530D01*
X178876736Y-90830728D01*
X178912913Y-90804443D01*
X178930857Y-90791407D01*
X179026524Y-90721900D01*
X179074689Y-90686906D01*
X179247706Y-90513889D01*
X179391528Y-90315936D01*
X179502612Y-90097921D01*
X179578223Y-89865213D01*
X179616500Y-89623542D01*
X179616500Y-89378858D01*
X179578223Y-89137187D01*
X179502612Y-88904479D01*
X179391528Y-88686464D01*
X179247706Y-88488511D01*
X179247704Y-88488508D01*
X179074691Y-88315495D01*
X178876739Y-88171674D01*
X178876738Y-88171673D01*
X178876736Y-88171672D01*
X178658721Y-88060588D01*
X178658718Y-88060587D01*
X178658716Y-88060586D01*
X178426016Y-87984978D01*
X178426020Y-87984978D01*
X178381026Y-87977851D01*
X178184342Y-87946700D01*
X177939658Y-87946700D01*
X177697987Y-87984977D01*
X177697981Y-87984978D01*
X177465283Y-88060586D01*
X177465277Y-88060589D01*
X177247260Y-88171674D01*
X177049308Y-88315495D01*
X176876295Y-88488508D01*
X176732474Y-88686460D01*
X176621389Y-88904477D01*
X176621386Y-88904483D01*
X176545778Y-89137181D01*
X176545777Y-89137186D01*
X176545777Y-89137187D01*
X176507500Y-89378858D01*
X154465899Y-89378858D01*
X154465899Y-88867534D01*
X154465898Y-88867530D01*
X154465898Y-88867526D01*
X154451134Y-88793299D01*
X154394883Y-88709115D01*
X154310702Y-88652866D01*
X154236467Y-88638100D01*
X152611536Y-88638100D01*
X152611526Y-88638101D01*
X152537299Y-88652865D01*
X152453115Y-88709116D01*
X152396866Y-88793297D01*
X152382100Y-88867530D01*
X147320500Y-88867530D01*
X147320500Y-85418758D01*
X176507500Y-85418758D01*
X176507500Y-85663442D01*
X176545777Y-85905113D01*
X176545778Y-85905118D01*
X176621386Y-86137816D01*
X176621388Y-86137821D01*
X176621389Y-86137822D01*
X176732474Y-86355839D01*
X176876295Y-86553791D01*
X177049308Y-86726804D01*
X177049311Y-86726806D01*
X177247264Y-86870628D01*
X177465279Y-86981712D01*
X177697981Y-87057321D01*
X177697982Y-87057321D01*
X177697987Y-87057323D01*
X177939658Y-87095600D01*
X177939661Y-87095600D01*
X178184339Y-87095600D01*
X178184342Y-87095600D01*
X178426013Y-87057323D01*
X178658721Y-86981712D01*
X178876736Y-86870628D01*
X179074689Y-86726806D01*
X179247706Y-86553789D01*
X179391528Y-86355836D01*
X179502612Y-86137821D01*
X179578223Y-85905113D01*
X179616500Y-85663442D01*
X179616500Y-85418758D01*
X179578223Y-85177087D01*
X179502612Y-84944379D01*
X179391528Y-84726364D01*
X179247706Y-84528411D01*
X179247704Y-84528408D01*
X179074691Y-84355395D01*
X178876739Y-84211574D01*
X178876738Y-84211573D01*
X178876736Y-84211572D01*
X178658721Y-84100488D01*
X178658718Y-84100487D01*
X178658716Y-84100486D01*
X178426016Y-84024878D01*
X178426020Y-84024878D01*
X178381026Y-84017751D01*
X178184342Y-83986600D01*
X177939658Y-83986600D01*
X177697987Y-84024877D01*
X177697981Y-84024878D01*
X177465283Y-84100486D01*
X177465277Y-84100489D01*
X177247260Y-84211574D01*
X177049308Y-84355395D01*
X176876295Y-84528408D01*
X176732474Y-84726360D01*
X176621389Y-84944377D01*
X176621386Y-84944383D01*
X176545778Y-85177081D01*
X176545777Y-85177086D01*
X176545777Y-85177087D01*
X176507500Y-85418758D01*
X147320500Y-85418758D01*
X147320500Y-83406530D01*
X147937100Y-83406530D01*
X147937100Y-85031463D01*
X147937101Y-85031473D01*
X147951865Y-85105700D01*
X148008116Y-85189884D01*
X148092297Y-85246133D01*
X148092299Y-85246134D01*
X148166533Y-85260900D01*
X149791466Y-85260899D01*
X149791469Y-85260898D01*
X149791473Y-85260898D01*
X149840726Y-85251101D01*
X149865701Y-85246134D01*
X149949884Y-85189884D01*
X150006134Y-85105701D01*
X150020900Y-85031467D01*
X150020899Y-83406534D01*
X150020898Y-83406530D01*
X150020898Y-83406526D01*
X150006134Y-83332299D01*
X149949883Y-83248115D01*
X149865702Y-83191866D01*
X149791467Y-83177100D01*
X148166536Y-83177100D01*
X148166526Y-83177101D01*
X148092299Y-83191865D01*
X148008115Y-83248116D01*
X147951866Y-83332297D01*
X147937100Y-83406530D01*
X147320500Y-83406530D01*
X147320500Y-77056577D01*
X151874600Y-77056577D01*
X151874600Y-77742000D01*
X152489849Y-77742000D01*
X152471500Y-77810480D01*
X152471500Y-77927520D01*
X152489849Y-77996000D01*
X151874601Y-77996000D01*
X151874601Y-78681422D01*
X151889337Y-78755505D01*
X151889337Y-78755507D01*
X151945475Y-78839524D01*
X152029493Y-78895662D01*
X152029494Y-78895663D01*
X152103580Y-78910399D01*
X152789000Y-78910399D01*
X152789000Y-78295150D01*
X152857480Y-78313500D01*
X152974520Y-78313500D01*
X153043000Y-78295150D01*
X153043000Y-78910399D01*
X153728414Y-78910399D01*
X153728422Y-78910398D01*
X153802505Y-78895662D01*
X153802507Y-78895662D01*
X153886524Y-78839524D01*
X153942662Y-78755506D01*
X153942663Y-78755505D01*
X153957399Y-78681422D01*
X153957400Y-78681415D01*
X153957400Y-77996000D01*
X153342151Y-77996000D01*
X153360500Y-77927520D01*
X153360500Y-77810480D01*
X153342151Y-77742000D01*
X153957399Y-77742000D01*
X153957399Y-77056586D01*
X153957398Y-77056577D01*
X153942662Y-76982494D01*
X153942662Y-76982492D01*
X153886524Y-76898476D01*
X153802506Y-76842337D01*
X153802505Y-76842336D01*
X153728422Y-76827600D01*
X153043000Y-76827600D01*
X153043000Y-77442849D01*
X152974520Y-77424500D01*
X152857480Y-77424500D01*
X152789000Y-77442849D01*
X152789000Y-76827600D01*
X152103586Y-76827600D01*
X152103576Y-76827601D01*
X152029494Y-76842337D01*
X152029492Y-76842337D01*
X151945475Y-76898475D01*
X151889337Y-76982493D01*
X151889336Y-76982494D01*
X151874600Y-77056577D01*
X147320500Y-77056577D01*
X147320500Y-76802530D01*
X160510100Y-76802530D01*
X160510100Y-78427463D01*
X160510101Y-78427473D01*
X160524865Y-78501700D01*
X160581116Y-78585884D01*
X160665297Y-78642133D01*
X160665299Y-78642134D01*
X160739533Y-78656900D01*
X162364466Y-78656899D01*
X162364469Y-78656898D01*
X162364473Y-78656898D01*
X162413726Y-78647101D01*
X162438701Y-78642134D01*
X162522884Y-78585884D01*
X162579134Y-78501701D01*
X162593900Y-78427467D01*
X162593899Y-76802534D01*
X162593898Y-76802530D01*
X162593898Y-76802526D01*
X162579134Y-76728299D01*
X162522883Y-76644115D01*
X162438702Y-76587866D01*
X162364467Y-76573100D01*
X160739536Y-76573100D01*
X160739526Y-76573101D01*
X160665299Y-76587865D01*
X160581115Y-76644116D01*
X160524866Y-76728297D01*
X160510100Y-76802530D01*
X147320500Y-76802530D01*
X147320500Y-75066500D01*
X147340502Y-74998379D01*
X147394158Y-74951886D01*
X147446500Y-74940500D01*
X232553500Y-74940500D01*
X232621621Y-74960502D01*
G37*
%TD.AperFunction*%
%TD*%
M02*
