%TF.GenerationSoftware,KiCad,Pcbnew,9.0.4*%
%TF.CreationDate,2025-10-20T19:51:56+03:00*%
%TF.ProjectId,New Project_d4730bb7df3c48b986d1d5e0e3a7b4b5,4e657720-5072-46f6-9a65-63745f643437,rev?*%
%TF.SameCoordinates,Original*%
%TF.FileFunction,Drillmap*%
%TF.FilePolarity,Positive*%
%FSLAX45Y45*%
G04 Gerber Fmt 4.5, Leading zero omitted, Abs format (unit mm)*
G04 Created by KiCad (PCBNEW 9.0.4) date 2025-10-20 19:51:56*
%MOMM*%
%LPD*%
G01*
G04 APERTURE LIST*
%ADD10C,0.254000*%
%ADD11C,0.200000*%
G04 APERTURE END LIST*
D10*
X14682000Y-7444000D02*
X23318000Y-7444000D01*
X23318000Y-7444000D02*
X23318000Y-9984000D01*
X23318000Y-9984000D02*
X14682000Y-9984000D01*
X14682000Y-9984000D02*
X14682000Y-7444000D01*
X6808000Y-10492000D02*
X6808000Y-10415800D01*
X6808000Y-10415800D02*
X6808000Y-10415800D01*
X6808000Y-10415800D02*
X9017800Y-10415800D01*
X9017800Y-10415800D02*
X10021100Y-11419100D01*
X10021100Y-11419100D02*
X10021100Y-13044700D01*
X10021100Y-13044700D02*
X9487700Y-13578100D01*
X9487700Y-13578100D02*
X6808000Y-13578100D01*
X6808000Y-13578100D02*
X6808000Y-10492000D01*
X6338100Y-7151900D02*
X10148100Y-7151900D01*
X10148100Y-7151900D02*
X10148100Y-9691900D01*
X10148100Y-9691900D02*
X6338100Y-9691900D01*
X6338100Y-9691900D02*
X6338100Y-7151900D01*
D11*
X6586177Y-13902284D02*
X6586177Y-13702284D01*
X6586177Y-13702284D02*
X6633796Y-13702284D01*
X6633796Y-13702284D02*
X6662367Y-13711808D01*
X6662367Y-13711808D02*
X6681415Y-13730855D01*
X6681415Y-13730855D02*
X6690939Y-13749903D01*
X6690939Y-13749903D02*
X6700462Y-13787998D01*
X6700462Y-13787998D02*
X6700462Y-13816569D01*
X6700462Y-13816569D02*
X6690939Y-13854665D01*
X6690939Y-13854665D02*
X6681415Y-13873712D01*
X6681415Y-13873712D02*
X6662367Y-13892760D01*
X6662367Y-13892760D02*
X6633796Y-13902284D01*
X6633796Y-13902284D02*
X6586177Y-13902284D01*
X6786177Y-13902284D02*
X6786177Y-13768950D01*
X6786177Y-13807046D02*
X6795701Y-13787998D01*
X6795701Y-13787998D02*
X6805224Y-13778474D01*
X6805224Y-13778474D02*
X6824272Y-13768950D01*
X6824272Y-13768950D02*
X6843320Y-13768950D01*
X6909986Y-13902284D02*
X6909986Y-13768950D01*
X6909986Y-13702284D02*
X6900462Y-13711808D01*
X6900462Y-13711808D02*
X6909986Y-13721331D01*
X6909986Y-13721331D02*
X6919510Y-13711808D01*
X6919510Y-13711808D02*
X6909986Y-13702284D01*
X6909986Y-13702284D02*
X6909986Y-13721331D01*
X7033796Y-13902284D02*
X7014748Y-13892760D01*
X7014748Y-13892760D02*
X7005224Y-13873712D01*
X7005224Y-13873712D02*
X7005224Y-13702284D01*
X7138558Y-13902284D02*
X7119510Y-13892760D01*
X7119510Y-13892760D02*
X7109986Y-13873712D01*
X7109986Y-13873712D02*
X7109986Y-13702284D01*
X7367129Y-13902284D02*
X7367129Y-13702284D01*
X7367129Y-13702284D02*
X7433796Y-13845141D01*
X7433796Y-13845141D02*
X7500462Y-13702284D01*
X7500462Y-13702284D02*
X7500462Y-13902284D01*
X7681415Y-13902284D02*
X7681415Y-13797522D01*
X7681415Y-13797522D02*
X7671891Y-13778474D01*
X7671891Y-13778474D02*
X7652843Y-13768950D01*
X7652843Y-13768950D02*
X7614748Y-13768950D01*
X7614748Y-13768950D02*
X7595701Y-13778474D01*
X7681415Y-13892760D02*
X7662367Y-13902284D01*
X7662367Y-13902284D02*
X7614748Y-13902284D01*
X7614748Y-13902284D02*
X7595701Y-13892760D01*
X7595701Y-13892760D02*
X7586177Y-13873712D01*
X7586177Y-13873712D02*
X7586177Y-13854665D01*
X7586177Y-13854665D02*
X7595701Y-13835617D01*
X7595701Y-13835617D02*
X7614748Y-13826093D01*
X7614748Y-13826093D02*
X7662367Y-13826093D01*
X7662367Y-13826093D02*
X7681415Y-13816569D01*
X7776653Y-13768950D02*
X7776653Y-13968950D01*
X7776653Y-13778474D02*
X7795701Y-13768950D01*
X7795701Y-13768950D02*
X7833796Y-13768950D01*
X7833796Y-13768950D02*
X7852843Y-13778474D01*
X7852843Y-13778474D02*
X7862367Y-13787998D01*
X7862367Y-13787998D02*
X7871891Y-13807046D01*
X7871891Y-13807046D02*
X7871891Y-13864188D01*
X7871891Y-13864188D02*
X7862367Y-13883236D01*
X7862367Y-13883236D02*
X7852843Y-13892760D01*
X7852843Y-13892760D02*
X7833796Y-13902284D01*
X7833796Y-13902284D02*
X7795701Y-13902284D01*
X7795701Y-13902284D02*
X7776653Y-13892760D01*
X7957605Y-13883236D02*
X7967129Y-13892760D01*
X7967129Y-13892760D02*
X7957605Y-13902284D01*
X7957605Y-13902284D02*
X7948082Y-13892760D01*
X7948082Y-13892760D02*
X7957605Y-13883236D01*
X7957605Y-13883236D02*
X7957605Y-13902284D01*
X7957605Y-13778474D02*
X7967129Y-13787998D01*
X7967129Y-13787998D02*
X7957605Y-13797522D01*
X7957605Y-13797522D02*
X7948082Y-13787998D01*
X7948082Y-13787998D02*
X7957605Y-13778474D01*
X7957605Y-13778474D02*
X7957605Y-13797522D01*
M02*
