%TF.GenerationSoftware,KiCad,Pcbnew,9.0.4*%
%TF.CreationDate,2025-10-20T19:51:49+03:00*%
%TF.ProjectId,New Project_d4730bb7df3c48b986d1d5e0e3a7b4b5,4e657720-5072-46f6-9a65-63745f643437,rev?*%
%TF.SameCoordinates,Original*%
%TF.FileFunction,Soldermask,Top*%
%TF.FilePolarity,Negative*%
%FSLAX46Y46*%
G04 Gerber Fmt 4.6, Leading zero omitted, Abs format (unit mm)*
G04 Created by KiCad (PCBNEW 9.0.4) date 2025-10-20 19:51:49*
%MOMM*%
%LPD*%
G01*
G04 APERTURE LIST*
G04 Aperture macros list*
%AMRoundRect*
0 Rectangle with rounded corners*
0 $1 Rounding radius*
0 $2 $3 $4 $5 $6 $7 $8 $9 X,Y pos of 4 corners*
0 Add a 4 corners polygon primitive as box body*
4,1,4,$2,$3,$4,$5,$6,$7,$8,$9,$2,$3,0*
0 Add four circle primitives for the rounded corners*
1,1,$1+$1,$2,$3*
1,1,$1+$1,$4,$5*
1,1,$1+$1,$6,$7*
1,1,$1+$1,$8,$9*
0 Add four rect primitives between the rounded corners*
20,1,$1+$1,$2,$3,$4,$5,0*
20,1,$1+$1,$4,$5,$6,$7,0*
20,1,$1+$1,$6,$7,$8,$9,0*
20,1,$1+$1,$8,$9,$2,$3,0*%
G04 Aperture macros list end*
%ADD10RoundRect,0.050800X-0.450000X0.400000X-0.450000X-0.400000X0.450000X-0.400000X0.450000X0.400000X0*%
%ADD11RoundRect,0.050800X-0.400000X-0.450000X0.400000X-0.450000X0.400000X0.450000X-0.400000X0.450000X0*%
%ADD12RoundRect,0.050800X0.400000X0.450000X-0.400000X0.450000X-0.400000X-0.450000X0.400000X-0.450000X0*%
%ADD13RoundRect,0.050800X0.450000X-0.400000X0.450000X0.400000X-0.450000X0.400000X-0.450000X-0.400000X0*%
%ADD14RoundRect,0.050800X-0.698500X0.203000X-0.698500X-0.203000X0.698500X-0.203000X0.698500X0.203000X0*%
%ADD15RoundRect,0.050800X-0.203000X-0.698500X0.203000X-0.698500X0.203000X0.698500X-0.203000X0.698500X0*%
%ADD16O,1.793600X0.465600*%
%ADD17O,0.689600X2.146600*%
%ADD18O,2.072600X0.703600*%
%ADD19O,1.843600X0.465600*%
%ADD20RoundRect,0.050800X-0.403250X-0.432000X0.403250X-0.432000X0.403250X0.432000X-0.403250X0.432000X0*%
%ADD21RoundRect,0.050800X0.403250X0.432000X-0.403250X0.432000X-0.403250X-0.432000X0.403250X-0.432000X0*%
%ADD22RoundRect,0.050800X-0.432000X0.403250X-0.432000X-0.403250X0.432000X-0.403250X0.432000X0.403250X0*%
%ADD23RoundRect,0.050800X0.432000X-0.403250X0.432000X0.403250X-0.432000X0.403250X-0.432000X-0.403250X0*%
%ADD24RoundRect,0.050800X-0.787400X0.787400X-0.787400X-0.787400X0.787400X-0.787400X0.787400X0.787400X0*%
%ADD25O,2.701600X2.701600*%
G04 APERTURE END LIST*
D10*
%TO.C,C1*%
X161044000Y-83522000D03*
X161044000Y-82122000D03*
%TD*%
D11*
%TO.C,C2*%
X154759000Y-86886000D03*
X153359000Y-86886000D03*
%TD*%
D10*
%TO.C,C3*%
X166124000Y-86062000D03*
X166124000Y-84662000D03*
%TD*%
D12*
%TO.C,C4*%
X173933000Y-81552000D03*
X175333000Y-81552000D03*
%TD*%
D11*
%TO.C,C5*%
X171015000Y-88156000D03*
X169615000Y-88156000D03*
%TD*%
%TO.C,C6*%
X160982000Y-92347000D03*
X159582000Y-92347000D03*
%TD*%
D10*
%TO.C,C7*%
X183142000Y-88094000D03*
X183142000Y-86693900D03*
%TD*%
%TO.C,C8*%
X189873000Y-77807000D03*
X189873000Y-76406900D03*
%TD*%
%TO.C,C9*%
X199017000Y-87713000D03*
X199017000Y-86312900D03*
%TD*%
%TO.C,C10*%
X192286000Y-77807000D03*
X192286000Y-76406900D03*
%TD*%
D11*
%TO.C,C11*%
X190446000Y-82187000D03*
X189045900Y-82187000D03*
%TD*%
%TO.C,C12*%
X194510000Y-82187000D03*
X193109900Y-82187000D03*
%TD*%
%TO.C,C13*%
X215846000Y-84346000D03*
X214445900Y-84346000D03*
%TD*%
%TO.C,C14*%
X218894000Y-77488000D03*
X217493900Y-77488000D03*
%TD*%
%TO.C,C15*%
X213560000Y-77234000D03*
X212159900Y-77234000D03*
%TD*%
D13*
%TO.C,C16*%
X218702000Y-84662000D03*
X218702000Y-86062100D03*
%TD*%
D10*
%TO.C,C17*%
X90940000Y-120225000D03*
X90940000Y-118825000D03*
%TD*%
D13*
%TO.C,C18*%
X87257000Y-76534000D03*
X87257000Y-77934000D03*
%TD*%
%TO.C,C19*%
X89797000Y-77804000D03*
X89797000Y-79204000D03*
%TD*%
%TO.C,C20*%
X95512000Y-77804000D03*
X95512000Y-79204000D03*
%TD*%
%TO.C,C21*%
X92337000Y-77804000D03*
X92337000Y-79204000D03*
%TD*%
D11*
%TO.C,C22*%
X219783000Y-88664000D03*
X218382900Y-88664000D03*
%TD*%
%TO.C,C23*%
X225244000Y-78758000D03*
X223843900Y-78758000D03*
%TD*%
D12*
%TO.C,C24*%
X215970000Y-91331000D03*
X217370100Y-91331000D03*
%TD*%
D10*
%TO.C,C25*%
X88146000Y-108795000D03*
X88146000Y-107395000D03*
%TD*%
%TO.C,C26*%
X97036000Y-116542000D03*
X97036000Y-115142000D03*
%TD*%
%TO.C,C27*%
X97163000Y-129242000D03*
X97163000Y-127842000D03*
%TD*%
D14*
%TO.C,DA1*%
X153410000Y-82862900D03*
X153410000Y-83512900D03*
X153410000Y-84163100D03*
X153410000Y-84813100D03*
X158010000Y-84813100D03*
X158010000Y-84163100D03*
X158010000Y-83512900D03*
X158010000Y-82862900D03*
%TD*%
%TO.C,DA2*%
X166872000Y-80957900D03*
X166872000Y-81607900D03*
X166872000Y-82258100D03*
X166872000Y-82908100D03*
X171472000Y-82908100D03*
X171472000Y-82258100D03*
X171472000Y-81607900D03*
X171472000Y-80957900D03*
%TD*%
%TO.C,DA3*%
X166491000Y-93276900D03*
X166491000Y-93926900D03*
X166491000Y-94577100D03*
X166491000Y-95227100D03*
X171091000Y-95227100D03*
X171091000Y-94577100D03*
X171091000Y-93926900D03*
X171091000Y-93276900D03*
%TD*%
%TO.C,DA4*%
X183128000Y-78163900D03*
X183128000Y-78813900D03*
X183128000Y-79464100D03*
X183128000Y-80114100D03*
X187728000Y-80114100D03*
X187728000Y-79464100D03*
X187728000Y-78813900D03*
X187728000Y-78163900D03*
%TD*%
D15*
%TO.C,DA7*%
X88948900Y-115856000D03*
X89598900Y-115856000D03*
X90249100Y-115856000D03*
X90899100Y-115856000D03*
X90899100Y-111256000D03*
X90249100Y-111256000D03*
X89598900Y-111256000D03*
X88948900Y-111256000D03*
%TD*%
%TO.C,DA9*%
X94663900Y-124746000D03*
X95313900Y-124746000D03*
X95964100Y-124746000D03*
X96614100Y-124746000D03*
X96614100Y-120146000D03*
X95964100Y-120146000D03*
X95313900Y-120146000D03*
X94663900Y-120146000D03*
%TD*%
D16*
%TO.C,DA5*%
X199030000Y-80830900D03*
X199030000Y-81481100D03*
X199030000Y-82131100D03*
X199030000Y-82781100D03*
X203322000Y-80830900D03*
X203322000Y-81481100D03*
X203322000Y-82131100D03*
X203322000Y-82781100D03*
%TD*%
%TO.C,DA6*%
X214524000Y-80195900D03*
X214524000Y-80846100D03*
X214524000Y-81496100D03*
X214524000Y-82146100D03*
X218816000Y-80195900D03*
X218816000Y-80846100D03*
X218816000Y-81496100D03*
X218816000Y-82146100D03*
%TD*%
D17*
%TO.C,DA8*%
X228354000Y-85383600D03*
X227084000Y-85383600D03*
X225814000Y-85383600D03*
X224544000Y-85383600D03*
X228354000Y-90928400D03*
X227084000Y-90928400D03*
X225814000Y-90928400D03*
X224544000Y-90928400D03*
%TD*%
D18*
%TO.C,DD1*%
X81727400Y-79647000D03*
X81727400Y-80917000D03*
X81727400Y-82187000D03*
X81727400Y-83457000D03*
X81727400Y-84727000D03*
X81727400Y-85997000D03*
X81727400Y-87267000D03*
X81727400Y-88537000D03*
X87198600Y-79647000D03*
X87198600Y-80917000D03*
X87198600Y-82187000D03*
X87198600Y-83457000D03*
X87198600Y-84727000D03*
X87198600Y-85997000D03*
X87198600Y-87267000D03*
X87198600Y-88537000D03*
%TD*%
D19*
%TO.C,DD2*%
X98002000Y-89430100D03*
X98002000Y-88780100D03*
X98002000Y-88130100D03*
X98002000Y-87480100D03*
X98002000Y-86829900D03*
X98002000Y-86179900D03*
X98002000Y-85529900D03*
X98002000Y-84879900D03*
X98002000Y-84229900D03*
X98002000Y-83579900D03*
X92260000Y-89430100D03*
X92260000Y-88780100D03*
X92260000Y-88130100D03*
X92260000Y-87480100D03*
X92260000Y-86829900D03*
X92260000Y-86179900D03*
X92260000Y-85529900D03*
X92260000Y-84879900D03*
X92260000Y-84229900D03*
X92260000Y-83579900D03*
%TD*%
D20*
%TO.C,R1*%
X169544400Y-79520000D03*
X168037600Y-79520000D03*
%TD*%
D21*
%TO.C,R2*%
X167910600Y-91712000D03*
X169417400Y-91712000D03*
%TD*%
D20*
%TO.C,R3*%
X161670400Y-85743000D03*
X160163600Y-85743000D03*
%TD*%
D21*
%TO.C,R4*%
X160163600Y-88664000D03*
X161670400Y-88664000D03*
%TD*%
%TO.C,R5*%
X169561600Y-77361000D03*
X171068400Y-77361000D03*
%TD*%
D20*
%TO.C,R6*%
X169417400Y-96919000D03*
X167910600Y-96919000D03*
%TD*%
D22*
%TO.C,R7*%
X173363000Y-96656300D03*
X173363000Y-95149900D03*
%TD*%
D23*
%TO.C,R8*%
X174633000Y-77242700D03*
X174633000Y-78749100D03*
%TD*%
D20*
%TO.C,R9*%
X196214300Y-79647000D03*
X194707900Y-79647000D03*
%TD*%
D23*
%TO.C,R10*%
X202319000Y-85370700D03*
X202319000Y-86877100D03*
%TD*%
D20*
%TO.C,R11*%
X207898300Y-81552000D03*
X206391900Y-81552000D03*
%TD*%
%TO.C,R12*%
X211454300Y-81552000D03*
X209947900Y-81552000D03*
%TD*%
%TO.C,R13*%
X80390400Y-107333000D03*
X78883600Y-107333000D03*
%TD*%
%TO.C,R14*%
X80390400Y-111270000D03*
X78883600Y-111270000D03*
%TD*%
%TO.C,R15*%
X80390400Y-115080000D03*
X78883600Y-115080000D03*
%TD*%
%TO.C,R16*%
X80390400Y-118890000D03*
X78883600Y-118890000D03*
%TD*%
%TO.C,R17*%
X80390400Y-122700000D03*
X78883600Y-122700000D03*
%TD*%
%TO.C,R18*%
X80390400Y-126383000D03*
X78883600Y-126383000D03*
%TD*%
%TO.C,R19*%
X80390400Y-130320000D03*
X78883600Y-130320000D03*
%TD*%
%TO.C,R20*%
X80390400Y-134130000D03*
X78883600Y-134130000D03*
%TD*%
D21*
%TO.C,R21*%
X86376600Y-122700000D03*
X87883400Y-122700000D03*
%TD*%
D23*
%TO.C,R22*%
X90813000Y-122835700D03*
X90813000Y-124342100D03*
%TD*%
D22*
%TO.C,R23*%
X229751000Y-84464300D03*
X229751000Y-82957900D03*
%TD*%
D23*
%TO.C,R24*%
X229751000Y-79147700D03*
X229751000Y-80654100D03*
%TD*%
D20*
%TO.C,R25*%
X229869300Y-94379000D03*
X228362900Y-94379000D03*
%TD*%
D23*
%TO.C,R26*%
X95385000Y-127788600D03*
X95385000Y-129295400D03*
%TD*%
D22*
%TO.C,R27*%
X90178000Y-108848400D03*
X90178000Y-107341600D03*
%TD*%
D23*
%TO.C,R28*%
X94115000Y-111786600D03*
X94115000Y-113293400D03*
%TD*%
D24*
%TO.C,XP1*%
X148979000Y-84219000D03*
%TD*%
%TO.C,XP2*%
X221750000Y-91712000D03*
%TD*%
%TO.C,XP3*%
X74430000Y-107333000D03*
%TD*%
%TO.C,XP4*%
X74557000Y-111270000D03*
%TD*%
%TO.C,XP5*%
X74557000Y-115080000D03*
%TD*%
%TO.C,XP6*%
X74557000Y-118890000D03*
%TD*%
%TO.C,XP7*%
X74430000Y-122700000D03*
%TD*%
%TO.C,XP8*%
X74430000Y-126383000D03*
%TD*%
%TO.C,XP9*%
X74430000Y-130320000D03*
%TD*%
%TO.C,XP10*%
X74430000Y-134130000D03*
%TD*%
%TO.C,XP11*%
X81669000Y-76218000D03*
%TD*%
%TO.C,XP12*%
X76335000Y-77488000D03*
%TD*%
%TO.C,XP13*%
X72779000Y-80028000D03*
%TD*%
%TO.C,XP14*%
X69731000Y-82695000D03*
%TD*%
%TO.C,XP15*%
X69731000Y-85743000D03*
%TD*%
%TO.C,XP16*%
X72906000Y-88029000D03*
%TD*%
%TO.C,XP17*%
X76462000Y-90442000D03*
%TD*%
%TO.C,XP18*%
X81669000Y-92220000D03*
%TD*%
D25*
%TO.C,XT1*%
X178062000Y-85541100D03*
X178062000Y-89501200D03*
%TD*%
D24*
%TO.C,XP19*%
X84209000Y-106825000D03*
%TD*%
%TO.C,XP20*%
X90940000Y-133749000D03*
%TD*%
%TO.C,XP21*%
X98560000Y-80409000D03*
%TD*%
%TO.C,XP22*%
X161552000Y-77615000D03*
%TD*%
%TO.C,XP23*%
X153424000Y-89680000D03*
%TD*%
%TO.C,XP24*%
X96020000Y-94252000D03*
%TD*%
%TO.C,XP25*%
X90940000Y-128542000D03*
%TD*%
%TO.C,XP26*%
X152916000Y-77869000D03*
%TD*%
M02*
