%TF.GenerationSoftware,KiCad,Pcbnew,9.0.4*%
%TF.CreationDate,2025-10-20T19:51:56+03:00*%
%TF.ProjectId,New Project_d4730bb7df3c48b986d1d5e0e3a7b4b5,4e657720-5072-46f6-9a65-63745f643437,rev?*%
%TF.SameCoordinates,Original*%
%TF.FileFunction,Drillmap*%
%TF.FilePolarity,Positive*%
%FSLAX45Y45*%
G04 Gerber Fmt 4.5, Leading zero omitted, Abs format (unit mm)*
G04 Created by KiCad (PCBNEW 9.0.4) date 2025-10-20 19:51:56*
%MOMM*%
%LPD*%
G01*
G04 APERTURE LIST*
%ADD10C,0.254000*%
%ADD11C,0.200000*%
%ADD12C,0.100000*%
%ADD13C,0.170000*%
G04 APERTURE END LIST*
D10*
X14682000Y-7444000D02*
X23318000Y-7444000D01*
X23318000Y-7444000D02*
X23318000Y-9984000D01*
X23318000Y-9984000D02*
X14682000Y-9984000D01*
X14682000Y-9984000D02*
X14682000Y-7444000D01*
X6808000Y-10492000D02*
X6808000Y-10415800D01*
X6808000Y-10415800D02*
X6808000Y-10415800D01*
X6808000Y-10415800D02*
X9017800Y-10415800D01*
X9017800Y-10415800D02*
X10021100Y-11419100D01*
X10021100Y-11419100D02*
X10021100Y-13044700D01*
X10021100Y-13044700D02*
X9487700Y-13578100D01*
X9487700Y-13578100D02*
X6808000Y-13578100D01*
X6808000Y-13578100D02*
X6808000Y-10492000D01*
X6338100Y-7151900D02*
X10148100Y-7151900D01*
X10148100Y-7151900D02*
X10148100Y-9691900D01*
X10148100Y-9691900D02*
X6338100Y-9691900D01*
X6338100Y-9691900D02*
X6338100Y-7151900D01*
D11*
D12*
X14773960Y-7535960D02*
X14804460Y-7566460D01*
X14804460Y-7535960D02*
X14773960Y-7566460D01*
X14773960Y-8043960D02*
X14804460Y-8074460D01*
X14804460Y-8043960D02*
X14773960Y-8074460D01*
X14773960Y-9059950D02*
X14804460Y-9090450D01*
X14804460Y-9059950D02*
X14773960Y-9090450D01*
X14773960Y-9567950D02*
X14804460Y-9598450D01*
X14804460Y-9567950D02*
X14773960Y-9598450D01*
X15281960Y-7535960D02*
X15312460Y-7566460D01*
X15312460Y-7535960D02*
X15281960Y-7566460D01*
X15281960Y-8043960D02*
X15312460Y-8074460D01*
X15312460Y-8043960D02*
X15281960Y-8074460D01*
X15281960Y-9567950D02*
X15312460Y-9598450D01*
X15312460Y-9567950D02*
X15281960Y-9598450D01*
X15789950Y-7535960D02*
X15820450Y-7566460D01*
X15820450Y-7535960D02*
X15789950Y-7566460D01*
X15789950Y-8043960D02*
X15820450Y-8074460D01*
X15820450Y-8043960D02*
X15789950Y-8074460D01*
X15789950Y-9567950D02*
X15820450Y-9598450D01*
X15820450Y-9567950D02*
X15789950Y-9598450D01*
X15982140Y-9075150D02*
X16012640Y-9105650D01*
X16012640Y-9075150D02*
X15982140Y-9105650D01*
X16297950Y-7535960D02*
X16328450Y-7566460D01*
X16328450Y-7535960D02*
X16297950Y-7566460D01*
X16386850Y-8704350D02*
X16417350Y-8734850D01*
X16417350Y-8704350D02*
X16386850Y-8734850D01*
X16490140Y-9583150D02*
X16520640Y-9613650D01*
X16520640Y-9583150D02*
X16490140Y-9613650D01*
X16805950Y-7535960D02*
X16836450Y-7566460D01*
X16836450Y-7535960D02*
X16805950Y-7566460D01*
X17326650Y-8983750D02*
X17357150Y-9014250D01*
X17357150Y-8983750D02*
X17326650Y-9014250D01*
X17694950Y-8082050D02*
X17725450Y-8112550D01*
X17725450Y-8082050D02*
X17694950Y-8112550D01*
X18157160Y-9113250D02*
X18187660Y-9143750D01*
X18187660Y-9113250D02*
X18157160Y-9143750D01*
X18329950Y-9567950D02*
X18360450Y-9598450D01*
X18360450Y-9567950D02*
X18329950Y-9598450D01*
X18837950Y-7535960D02*
X18868450Y-7566460D01*
X18868450Y-7535960D02*
X18837950Y-7566460D01*
X18837950Y-9059950D02*
X18868450Y-9090450D01*
X18868450Y-9059950D02*
X18837950Y-9090450D01*
X18837950Y-9567950D02*
X18868450Y-9598450D01*
X18868450Y-9567950D02*
X18837950Y-9598450D01*
X19345950Y-7535960D02*
X19376450Y-7566460D01*
X19376450Y-7535960D02*
X19345950Y-7566460D01*
X19345950Y-9059950D02*
X19376450Y-9090450D01*
X19376450Y-9059950D02*
X19345950Y-9090450D01*
X19345950Y-9567950D02*
X19376450Y-9598450D01*
X19376450Y-9567950D02*
X19345950Y-9598450D01*
X19853950Y-7535960D02*
X19884450Y-7566460D01*
X19884450Y-7535960D02*
X19853950Y-7566460D01*
X19853950Y-9059950D02*
X19884450Y-9090450D01*
X19884450Y-9059950D02*
X19853950Y-9090450D01*
X19853950Y-9567950D02*
X19884450Y-9598450D01*
X19884450Y-9567950D02*
X19853950Y-9598450D01*
X20361950Y-7535960D02*
X20392450Y-7566460D01*
X20392450Y-7535960D02*
X20361950Y-7566460D01*
X20361950Y-9059950D02*
X20392450Y-9090450D01*
X20392450Y-9059950D02*
X20361950Y-9090450D01*
X20361950Y-9567950D02*
X20392450Y-9598450D01*
X20392450Y-9567950D02*
X20361950Y-9598450D01*
X20869940Y-7535960D02*
X20900440Y-7566460D01*
X20900440Y-7535960D02*
X20869940Y-7566460D01*
X20869940Y-8551950D02*
X20900440Y-8582450D01*
X20900440Y-8551950D02*
X20869940Y-8582450D01*
X20869940Y-9059950D02*
X20900440Y-9090450D01*
X20900440Y-9059950D02*
X20869940Y-9090450D01*
X20869940Y-9567950D02*
X20900440Y-9598450D01*
X20900440Y-9567950D02*
X20869940Y-9598450D01*
X21377940Y-8551950D02*
X21408440Y-8582450D01*
X21408440Y-8551950D02*
X21377940Y-8582450D01*
X21377940Y-9059950D02*
X21408440Y-9090450D01*
X21408440Y-9059950D02*
X21377940Y-9090450D01*
X21377940Y-9567950D02*
X21408440Y-9598450D01*
X21408440Y-9567950D02*
X21377940Y-9598450D01*
X21487950Y-7713760D02*
X21518450Y-7744260D01*
X21518450Y-7713760D02*
X21487950Y-7744260D01*
X21885940Y-7535960D02*
X21916440Y-7566460D01*
X21916440Y-7535960D02*
X21885940Y-7566460D01*
X21885940Y-9567950D02*
X21916440Y-9598450D01*
X21916440Y-9567950D02*
X21885940Y-9598450D01*
X22393940Y-7535960D02*
X22424440Y-7566460D01*
X22424440Y-7535960D02*
X22393940Y-7566460D01*
X22393940Y-8043960D02*
X22424440Y-8074460D01*
X22424440Y-8043960D02*
X22393940Y-8074460D01*
X22393940Y-9567950D02*
X22424440Y-9598450D01*
X22424440Y-9567950D02*
X22393940Y-9598450D01*
X22901940Y-7535960D02*
X22932440Y-7566460D01*
X22932440Y-7535960D02*
X22901940Y-7566460D01*
X22901940Y-9567950D02*
X22932440Y-9598450D01*
X22932440Y-9567950D02*
X22901940Y-9598450D01*
X7017550Y-8269500D02*
G75*
G02*
X6928650Y-8269500I-44450J0D01*
G01*
X6928650Y-8269500D02*
G75*
G02*
X7017550Y-8269500I44450J0D01*
G01*
X7017550Y-8574300D02*
G75*
G02*
X6928650Y-8574300I-44450J0D01*
G01*
X6928650Y-8574300D02*
G75*
G02*
X7017550Y-8574300I44450J0D01*
G01*
X7322350Y-8002800D02*
G75*
G02*
X7233450Y-8002800I-44450J0D01*
G01*
X7233450Y-8002800D02*
G75*
G02*
X7322350Y-8002800I44450J0D01*
G01*
X7335050Y-8802900D02*
G75*
G02*
X7246150Y-8802900I-44450J0D01*
G01*
X7246150Y-8802900D02*
G75*
G02*
X7335050Y-8802900I44450J0D01*
G01*
X7487450Y-10733300D02*
G75*
G02*
X7398550Y-10733300I-44450J0D01*
G01*
X7398550Y-10733300D02*
G75*
G02*
X7487450Y-10733300I44450J0D01*
G01*
X7487450Y-12270000D02*
G75*
G02*
X7398550Y-12270000I-44450J0D01*
G01*
X7398550Y-12270000D02*
G75*
G02*
X7487450Y-12270000I44450J0D01*
G01*
X7487450Y-12638300D02*
G75*
G02*
X7398550Y-12638300I-44450J0D01*
G01*
X7398550Y-12638300D02*
G75*
G02*
X7487450Y-12638300I44450J0D01*
G01*
X7487450Y-13032000D02*
G75*
G02*
X7398550Y-13032000I-44450J0D01*
G01*
X7398550Y-13032000D02*
G75*
G02*
X7487450Y-13032000I44450J0D01*
G01*
X7487450Y-13413000D02*
G75*
G02*
X7398550Y-13413000I-44450J0D01*
G01*
X7398550Y-13413000D02*
G75*
G02*
X7487450Y-13413000I44450J0D01*
G01*
X7500150Y-11127000D02*
G75*
G02*
X7411250Y-11127000I-44450J0D01*
G01*
X7411250Y-11127000D02*
G75*
G02*
X7500150Y-11127000I44450J0D01*
G01*
X7500150Y-11508000D02*
G75*
G02*
X7411250Y-11508000I-44450J0D01*
G01*
X7411250Y-11508000D02*
G75*
G02*
X7500150Y-11508000I44450J0D01*
G01*
X7500150Y-11889000D02*
G75*
G02*
X7411250Y-11889000I-44450J0D01*
G01*
X7411250Y-11889000D02*
G75*
G02*
X7500150Y-11889000I44450J0D01*
G01*
X7677950Y-7748800D02*
G75*
G02*
X7589050Y-7748800I-44450J0D01*
G01*
X7589050Y-7748800D02*
G75*
G02*
X7677950Y-7748800I44450J0D01*
G01*
X7690650Y-9044200D02*
G75*
G02*
X7601750Y-9044200I-44450J0D01*
G01*
X7601750Y-9044200D02*
G75*
G02*
X7690650Y-9044200I44450J0D01*
G01*
X8211350Y-7621800D02*
G75*
G02*
X8122450Y-7621800I-44450J0D01*
G01*
X8122450Y-7621800D02*
G75*
G02*
X8211350Y-7621800I44450J0D01*
G01*
X8211350Y-9222000D02*
G75*
G02*
X8122450Y-9222000I-44450J0D01*
G01*
X8122450Y-9222000D02*
G75*
G02*
X8211350Y-9222000I44450J0D01*
G01*
X8465350Y-10682500D02*
G75*
G02*
X8376450Y-10682500I-44450J0D01*
G01*
X8376450Y-10682500D02*
G75*
G02*
X8465350Y-10682500I44450J0D01*
G01*
X9138450Y-12854200D02*
G75*
G02*
X9049550Y-12854200I-44450J0D01*
G01*
X9049550Y-12854200D02*
G75*
G02*
X9138450Y-12854200I44450J0D01*
G01*
X9138450Y-13374900D02*
G75*
G02*
X9049550Y-13374900I-44450J0D01*
G01*
X9049550Y-13374900D02*
G75*
G02*
X9138450Y-13374900I44450J0D01*
G01*
X9646450Y-9425200D02*
G75*
G02*
X9557550Y-9425200I-44450J0D01*
G01*
X9557550Y-9425200D02*
G75*
G02*
X9646450Y-9425200I44450J0D01*
G01*
X9900450Y-8040900D02*
G75*
G02*
X9811550Y-8040900I-44450J0D01*
G01*
X9811550Y-8040900D02*
G75*
G02*
X9900450Y-8040900I44450J0D01*
G01*
X14942350Y-8421900D02*
G75*
G02*
X14853450Y-8421900I-44450J0D01*
G01*
X14853450Y-8421900D02*
G75*
G02*
X14942350Y-8421900I44450J0D01*
G01*
X15336050Y-7786900D02*
G75*
G02*
X15247150Y-7786900I-44450J0D01*
G01*
X15247150Y-7786900D02*
G75*
G02*
X15336050Y-7786900I44450J0D01*
G01*
X15386850Y-8968000D02*
G75*
G02*
X15297950Y-8968000I-44450J0D01*
G01*
X15297950Y-8968000D02*
G75*
G02*
X15386850Y-8968000I44450J0D01*
G01*
X16199650Y-7761500D02*
G75*
G02*
X16110750Y-7761500I-44450J0D01*
G01*
X16110750Y-7761500D02*
G75*
G02*
X16199650Y-7761500I44450J0D01*
G01*
X22219450Y-9171200D02*
G75*
G02*
X22130550Y-9171200I-44450J0D01*
G01*
X22130550Y-9171200D02*
G75*
G02*
X22219450Y-9171200I44450J0D01*
G01*
D13*
X17806200Y-8469110D02*
X17806200Y-8639110D01*
X17721200Y-8554110D02*
X17891200Y-8554110D01*
X17806200Y-8865120D02*
X17806200Y-9035120D01*
X17721200Y-8950120D02*
X17891200Y-8950120D01*
D11*
X6586177Y-13902284D02*
X6586177Y-13702284D01*
X6586177Y-13702284D02*
X6633796Y-13702284D01*
X6633796Y-13702284D02*
X6662367Y-13711808D01*
X6662367Y-13711808D02*
X6681415Y-13730855D01*
X6681415Y-13730855D02*
X6690939Y-13749903D01*
X6690939Y-13749903D02*
X6700462Y-13787998D01*
X6700462Y-13787998D02*
X6700462Y-13816569D01*
X6700462Y-13816569D02*
X6690939Y-13854665D01*
X6690939Y-13854665D02*
X6681415Y-13873712D01*
X6681415Y-13873712D02*
X6662367Y-13892760D01*
X6662367Y-13892760D02*
X6633796Y-13902284D01*
X6633796Y-13902284D02*
X6586177Y-13902284D01*
X6786177Y-13902284D02*
X6786177Y-13768950D01*
X6786177Y-13807046D02*
X6795701Y-13787998D01*
X6795701Y-13787998D02*
X6805224Y-13778474D01*
X6805224Y-13778474D02*
X6824272Y-13768950D01*
X6824272Y-13768950D02*
X6843320Y-13768950D01*
X6909986Y-13902284D02*
X6909986Y-13768950D01*
X6909986Y-13702284D02*
X6900462Y-13711808D01*
X6900462Y-13711808D02*
X6909986Y-13721331D01*
X6909986Y-13721331D02*
X6919510Y-13711808D01*
X6919510Y-13711808D02*
X6909986Y-13702284D01*
X6909986Y-13702284D02*
X6909986Y-13721331D01*
X7033796Y-13902284D02*
X7014748Y-13892760D01*
X7014748Y-13892760D02*
X7005224Y-13873712D01*
X7005224Y-13873712D02*
X7005224Y-13702284D01*
X7138558Y-13902284D02*
X7119510Y-13892760D01*
X7119510Y-13892760D02*
X7109986Y-13873712D01*
X7109986Y-13873712D02*
X7109986Y-13702284D01*
X7367129Y-13902284D02*
X7367129Y-13702284D01*
X7367129Y-13702284D02*
X7433796Y-13845141D01*
X7433796Y-13845141D02*
X7500462Y-13702284D01*
X7500462Y-13702284D02*
X7500462Y-13902284D01*
X7681415Y-13902284D02*
X7681415Y-13797522D01*
X7681415Y-13797522D02*
X7671891Y-13778474D01*
X7671891Y-13778474D02*
X7652843Y-13768950D01*
X7652843Y-13768950D02*
X7614748Y-13768950D01*
X7614748Y-13768950D02*
X7595701Y-13778474D01*
X7681415Y-13892760D02*
X7662367Y-13902284D01*
X7662367Y-13902284D02*
X7614748Y-13902284D01*
X7614748Y-13902284D02*
X7595701Y-13892760D01*
X7595701Y-13892760D02*
X7586177Y-13873712D01*
X7586177Y-13873712D02*
X7586177Y-13854665D01*
X7586177Y-13854665D02*
X7595701Y-13835617D01*
X7595701Y-13835617D02*
X7614748Y-13826093D01*
X7614748Y-13826093D02*
X7662367Y-13826093D01*
X7662367Y-13826093D02*
X7681415Y-13816569D01*
X7776653Y-13768950D02*
X7776653Y-13968950D01*
X7776653Y-13778474D02*
X7795701Y-13768950D01*
X7795701Y-13768950D02*
X7833796Y-13768950D01*
X7833796Y-13768950D02*
X7852843Y-13778474D01*
X7852843Y-13778474D02*
X7862367Y-13787998D01*
X7862367Y-13787998D02*
X7871891Y-13807046D01*
X7871891Y-13807046D02*
X7871891Y-13864188D01*
X7871891Y-13864188D02*
X7862367Y-13883236D01*
X7862367Y-13883236D02*
X7852843Y-13892760D01*
X7852843Y-13892760D02*
X7833796Y-13902284D01*
X7833796Y-13902284D02*
X7795701Y-13902284D01*
X7795701Y-13902284D02*
X7776653Y-13892760D01*
X7957605Y-13883236D02*
X7967129Y-13892760D01*
X7967129Y-13892760D02*
X7957605Y-13902284D01*
X7957605Y-13902284D02*
X7948082Y-13892760D01*
X7948082Y-13892760D02*
X7957605Y-13883236D01*
X7957605Y-13883236D02*
X7957605Y-13902284D01*
X7957605Y-13778474D02*
X7967129Y-13787998D01*
X7967129Y-13787998D02*
X7957605Y-13797522D01*
X7957605Y-13797522D02*
X7948082Y-13787998D01*
X7948082Y-13787998D02*
X7957605Y-13778474D01*
X7957605Y-13778474D02*
X7957605Y-13797522D01*
D12*
X6294900Y-14215550D02*
X6325400Y-14246050D01*
X6325400Y-14215550D02*
X6294900Y-14246050D01*
D11*
X6624272Y-14122284D02*
X6643320Y-14122284D01*
X6643320Y-14122284D02*
X6662367Y-14131808D01*
X6662367Y-14131808D02*
X6671891Y-14141331D01*
X6671891Y-14141331D02*
X6681415Y-14160379D01*
X6681415Y-14160379D02*
X6690939Y-14198474D01*
X6690939Y-14198474D02*
X6690939Y-14246093D01*
X6690939Y-14246093D02*
X6681415Y-14284188D01*
X6681415Y-14284188D02*
X6671891Y-14303236D01*
X6671891Y-14303236D02*
X6662367Y-14312760D01*
X6662367Y-14312760D02*
X6643320Y-14322284D01*
X6643320Y-14322284D02*
X6624272Y-14322284D01*
X6624272Y-14322284D02*
X6605224Y-14312760D01*
X6605224Y-14312760D02*
X6595701Y-14303236D01*
X6595701Y-14303236D02*
X6586177Y-14284188D01*
X6586177Y-14284188D02*
X6576653Y-14246093D01*
X6576653Y-14246093D02*
X6576653Y-14198474D01*
X6576653Y-14198474D02*
X6586177Y-14160379D01*
X6586177Y-14160379D02*
X6595701Y-14141331D01*
X6595701Y-14141331D02*
X6605224Y-14131808D01*
X6605224Y-14131808D02*
X6624272Y-14122284D01*
X6776653Y-14303236D02*
X6786177Y-14312760D01*
X6786177Y-14312760D02*
X6776653Y-14322284D01*
X6776653Y-14322284D02*
X6767129Y-14312760D01*
X6767129Y-14312760D02*
X6776653Y-14303236D01*
X6776653Y-14303236D02*
X6776653Y-14322284D01*
X6852843Y-14122284D02*
X6976653Y-14122284D01*
X6976653Y-14122284D02*
X6909986Y-14198474D01*
X6909986Y-14198474D02*
X6938558Y-14198474D01*
X6938558Y-14198474D02*
X6957605Y-14207998D01*
X6957605Y-14207998D02*
X6967129Y-14217522D01*
X6967129Y-14217522D02*
X6976653Y-14236569D01*
X6976653Y-14236569D02*
X6976653Y-14284188D01*
X6976653Y-14284188D02*
X6967129Y-14303236D01*
X6967129Y-14303236D02*
X6957605Y-14312760D01*
X6957605Y-14312760D02*
X6938558Y-14322284D01*
X6938558Y-14322284D02*
X6881415Y-14322284D01*
X6881415Y-14322284D02*
X6862367Y-14312760D01*
X6862367Y-14312760D02*
X6852843Y-14303236D01*
X7100462Y-14122284D02*
X7119510Y-14122284D01*
X7119510Y-14122284D02*
X7138558Y-14131808D01*
X7138558Y-14131808D02*
X7148082Y-14141331D01*
X7148082Y-14141331D02*
X7157605Y-14160379D01*
X7157605Y-14160379D02*
X7167129Y-14198474D01*
X7167129Y-14198474D02*
X7167129Y-14246093D01*
X7167129Y-14246093D02*
X7157605Y-14284188D01*
X7157605Y-14284188D02*
X7148082Y-14303236D01*
X7148082Y-14303236D02*
X7138558Y-14312760D01*
X7138558Y-14312760D02*
X7119510Y-14322284D01*
X7119510Y-14322284D02*
X7100462Y-14322284D01*
X7100462Y-14322284D02*
X7081415Y-14312760D01*
X7081415Y-14312760D02*
X7071891Y-14303236D01*
X7071891Y-14303236D02*
X7062367Y-14284188D01*
X7062367Y-14284188D02*
X7052843Y-14246093D01*
X7052843Y-14246093D02*
X7052843Y-14198474D01*
X7052843Y-14198474D02*
X7062367Y-14160379D01*
X7062367Y-14160379D02*
X7071891Y-14141331D01*
X7071891Y-14141331D02*
X7081415Y-14131808D01*
X7081415Y-14131808D02*
X7100462Y-14122284D01*
X7348082Y-14122284D02*
X7252843Y-14122284D01*
X7252843Y-14122284D02*
X7243320Y-14217522D01*
X7243320Y-14217522D02*
X7252843Y-14207998D01*
X7252843Y-14207998D02*
X7271891Y-14198474D01*
X7271891Y-14198474D02*
X7319510Y-14198474D01*
X7319510Y-14198474D02*
X7338558Y-14207998D01*
X7338558Y-14207998D02*
X7348082Y-14217522D01*
X7348082Y-14217522D02*
X7357605Y-14236569D01*
X7357605Y-14236569D02*
X7357605Y-14284188D01*
X7357605Y-14284188D02*
X7348082Y-14303236D01*
X7348082Y-14303236D02*
X7338558Y-14312760D01*
X7338558Y-14312760D02*
X7319510Y-14322284D01*
X7319510Y-14322284D02*
X7271891Y-14322284D01*
X7271891Y-14322284D02*
X7252843Y-14312760D01*
X7252843Y-14312760D02*
X7243320Y-14303236D01*
X7443320Y-14322284D02*
X7443320Y-14188950D01*
X7443320Y-14207998D02*
X7452843Y-14198474D01*
X7452843Y-14198474D02*
X7471891Y-14188950D01*
X7471891Y-14188950D02*
X7500463Y-14188950D01*
X7500463Y-14188950D02*
X7519510Y-14198474D01*
X7519510Y-14198474D02*
X7529034Y-14217522D01*
X7529034Y-14217522D02*
X7529034Y-14322284D01*
X7529034Y-14217522D02*
X7538558Y-14198474D01*
X7538558Y-14198474D02*
X7557605Y-14188950D01*
X7557605Y-14188950D02*
X7586177Y-14188950D01*
X7586177Y-14188950D02*
X7605224Y-14198474D01*
X7605224Y-14198474D02*
X7614748Y-14217522D01*
X7614748Y-14217522D02*
X7614748Y-14322284D01*
X7709986Y-14322284D02*
X7709986Y-14188950D01*
X7709986Y-14207998D02*
X7719510Y-14198474D01*
X7719510Y-14198474D02*
X7738558Y-14188950D01*
X7738558Y-14188950D02*
X7767129Y-14188950D01*
X7767129Y-14188950D02*
X7786177Y-14198474D01*
X7786177Y-14198474D02*
X7795701Y-14217522D01*
X7795701Y-14217522D02*
X7795701Y-14322284D01*
X7795701Y-14217522D02*
X7805224Y-14198474D01*
X7805224Y-14198474D02*
X7824272Y-14188950D01*
X7824272Y-14188950D02*
X7852843Y-14188950D01*
X7852843Y-14188950D02*
X7871891Y-14198474D01*
X7871891Y-14198474D02*
X7881415Y-14217522D01*
X7881415Y-14217522D02*
X7881415Y-14322284D01*
X8271891Y-14112760D02*
X8100463Y-14369903D01*
X8529034Y-14122284D02*
X8548082Y-14122284D01*
X8548082Y-14122284D02*
X8567129Y-14131808D01*
X8567129Y-14131808D02*
X8576653Y-14141331D01*
X8576653Y-14141331D02*
X8586177Y-14160379D01*
X8586177Y-14160379D02*
X8595701Y-14198474D01*
X8595701Y-14198474D02*
X8595701Y-14246093D01*
X8595701Y-14246093D02*
X8586177Y-14284188D01*
X8586177Y-14284188D02*
X8576653Y-14303236D01*
X8576653Y-14303236D02*
X8567129Y-14312760D01*
X8567129Y-14312760D02*
X8548082Y-14322284D01*
X8548082Y-14322284D02*
X8529034Y-14322284D01*
X8529034Y-14322284D02*
X8509987Y-14312760D01*
X8509987Y-14312760D02*
X8500463Y-14303236D01*
X8500463Y-14303236D02*
X8490939Y-14284188D01*
X8490939Y-14284188D02*
X8481415Y-14246093D01*
X8481415Y-14246093D02*
X8481415Y-14198474D01*
X8481415Y-14198474D02*
X8490939Y-14160379D01*
X8490939Y-14160379D02*
X8500463Y-14141331D01*
X8500463Y-14141331D02*
X8509987Y-14131808D01*
X8509987Y-14131808D02*
X8529034Y-14122284D01*
X8681415Y-14303236D02*
X8690939Y-14312760D01*
X8690939Y-14312760D02*
X8681415Y-14322284D01*
X8681415Y-14322284D02*
X8671891Y-14312760D01*
X8671891Y-14312760D02*
X8681415Y-14303236D01*
X8681415Y-14303236D02*
X8681415Y-14322284D01*
X8814748Y-14122284D02*
X8833796Y-14122284D01*
X8833796Y-14122284D02*
X8852844Y-14131808D01*
X8852844Y-14131808D02*
X8862368Y-14141331D01*
X8862368Y-14141331D02*
X8871891Y-14160379D01*
X8871891Y-14160379D02*
X8881415Y-14198474D01*
X8881415Y-14198474D02*
X8881415Y-14246093D01*
X8881415Y-14246093D02*
X8871891Y-14284188D01*
X8871891Y-14284188D02*
X8862368Y-14303236D01*
X8862368Y-14303236D02*
X8852844Y-14312760D01*
X8852844Y-14312760D02*
X8833796Y-14322284D01*
X8833796Y-14322284D02*
X8814748Y-14322284D01*
X8814748Y-14322284D02*
X8795701Y-14312760D01*
X8795701Y-14312760D02*
X8786177Y-14303236D01*
X8786177Y-14303236D02*
X8776653Y-14284188D01*
X8776653Y-14284188D02*
X8767129Y-14246093D01*
X8767129Y-14246093D02*
X8767129Y-14198474D01*
X8767129Y-14198474D02*
X8776653Y-14160379D01*
X8776653Y-14160379D02*
X8786177Y-14141331D01*
X8786177Y-14141331D02*
X8795701Y-14131808D01*
X8795701Y-14131808D02*
X8814748Y-14122284D01*
X9071891Y-14322284D02*
X8957606Y-14322284D01*
X9014748Y-14322284D02*
X9014748Y-14122284D01*
X9014748Y-14122284D02*
X8995701Y-14150855D01*
X8995701Y-14150855D02*
X8976653Y-14169903D01*
X8976653Y-14169903D02*
X8957606Y-14179427D01*
X9148082Y-14141331D02*
X9157606Y-14131808D01*
X9157606Y-14131808D02*
X9176653Y-14122284D01*
X9176653Y-14122284D02*
X9224272Y-14122284D01*
X9224272Y-14122284D02*
X9243320Y-14131808D01*
X9243320Y-14131808D02*
X9252844Y-14141331D01*
X9252844Y-14141331D02*
X9262368Y-14160379D01*
X9262368Y-14160379D02*
X9262368Y-14179427D01*
X9262368Y-14179427D02*
X9252844Y-14207998D01*
X9252844Y-14207998D02*
X9138558Y-14322284D01*
X9138558Y-14322284D02*
X9262368Y-14322284D01*
X9386177Y-14122284D02*
X9405225Y-14122284D01*
X9405225Y-14122284D02*
X9424272Y-14131808D01*
X9424272Y-14131808D02*
X9433796Y-14141331D01*
X9433796Y-14141331D02*
X9443320Y-14160379D01*
X9443320Y-14160379D02*
X9452844Y-14198474D01*
X9452844Y-14198474D02*
X9452844Y-14246093D01*
X9452844Y-14246093D02*
X9443320Y-14284188D01*
X9443320Y-14284188D02*
X9433796Y-14303236D01*
X9433796Y-14303236D02*
X9424272Y-14312760D01*
X9424272Y-14312760D02*
X9405225Y-14322284D01*
X9405225Y-14322284D02*
X9386177Y-14322284D01*
X9386177Y-14322284D02*
X9367129Y-14312760D01*
X9367129Y-14312760D02*
X9357606Y-14303236D01*
X9357606Y-14303236D02*
X9348082Y-14284188D01*
X9348082Y-14284188D02*
X9338558Y-14246093D01*
X9338558Y-14246093D02*
X9338558Y-14198474D01*
X9338558Y-14198474D02*
X9348082Y-14160379D01*
X9348082Y-14160379D02*
X9357606Y-14141331D01*
X9357606Y-14141331D02*
X9367129Y-14131808D01*
X9367129Y-14131808D02*
X9386177Y-14122284D01*
X9529034Y-14122284D02*
X9529034Y-14160379D01*
X9605225Y-14122284D02*
X9605225Y-14160379D01*
X9900463Y-14398474D02*
X9890939Y-14388950D01*
X9890939Y-14388950D02*
X9871891Y-14360379D01*
X9871891Y-14360379D02*
X9862368Y-14341331D01*
X9862368Y-14341331D02*
X9852844Y-14312760D01*
X9852844Y-14312760D02*
X9843320Y-14265141D01*
X9843320Y-14265141D02*
X9843320Y-14227046D01*
X9843320Y-14227046D02*
X9852844Y-14179427D01*
X9852844Y-14179427D02*
X9862368Y-14150855D01*
X9862368Y-14150855D02*
X9871891Y-14131808D01*
X9871891Y-14131808D02*
X9890939Y-14103236D01*
X9890939Y-14103236D02*
X9900463Y-14093712D01*
X10062368Y-14188950D02*
X10062368Y-14322284D01*
X10014749Y-14112760D02*
X9967130Y-14255617D01*
X9967130Y-14255617D02*
X10090939Y-14255617D01*
X10252844Y-14122284D02*
X10214749Y-14122284D01*
X10214749Y-14122284D02*
X10195701Y-14131808D01*
X10195701Y-14131808D02*
X10186177Y-14141331D01*
X10186177Y-14141331D02*
X10167130Y-14169903D01*
X10167130Y-14169903D02*
X10157606Y-14207998D01*
X10157606Y-14207998D02*
X10157606Y-14284188D01*
X10157606Y-14284188D02*
X10167130Y-14303236D01*
X10167130Y-14303236D02*
X10176653Y-14312760D01*
X10176653Y-14312760D02*
X10195701Y-14322284D01*
X10195701Y-14322284D02*
X10233796Y-14322284D01*
X10233796Y-14322284D02*
X10252844Y-14312760D01*
X10252844Y-14312760D02*
X10262368Y-14303236D01*
X10262368Y-14303236D02*
X10271891Y-14284188D01*
X10271891Y-14284188D02*
X10271891Y-14236569D01*
X10271891Y-14236569D02*
X10262368Y-14217522D01*
X10262368Y-14217522D02*
X10252844Y-14207998D01*
X10252844Y-14207998D02*
X10233796Y-14198474D01*
X10233796Y-14198474D02*
X10195701Y-14198474D01*
X10195701Y-14198474D02*
X10176653Y-14207998D01*
X10176653Y-14207998D02*
X10167130Y-14217522D01*
X10167130Y-14217522D02*
X10157606Y-14236569D01*
X10509987Y-14322284D02*
X10509987Y-14122284D01*
X10595701Y-14322284D02*
X10595701Y-14217522D01*
X10595701Y-14217522D02*
X10586177Y-14198474D01*
X10586177Y-14198474D02*
X10567130Y-14188950D01*
X10567130Y-14188950D02*
X10538558Y-14188950D01*
X10538558Y-14188950D02*
X10519511Y-14198474D01*
X10519511Y-14198474D02*
X10509987Y-14207998D01*
X10719511Y-14322284D02*
X10700463Y-14312760D01*
X10700463Y-14312760D02*
X10690939Y-14303236D01*
X10690939Y-14303236D02*
X10681415Y-14284188D01*
X10681415Y-14284188D02*
X10681415Y-14227046D01*
X10681415Y-14227046D02*
X10690939Y-14207998D01*
X10690939Y-14207998D02*
X10700463Y-14198474D01*
X10700463Y-14198474D02*
X10719511Y-14188950D01*
X10719511Y-14188950D02*
X10748082Y-14188950D01*
X10748082Y-14188950D02*
X10767130Y-14198474D01*
X10767130Y-14198474D02*
X10776653Y-14207998D01*
X10776653Y-14207998D02*
X10786177Y-14227046D01*
X10786177Y-14227046D02*
X10786177Y-14284188D01*
X10786177Y-14284188D02*
X10776653Y-14303236D01*
X10776653Y-14303236D02*
X10767130Y-14312760D01*
X10767130Y-14312760D02*
X10748082Y-14322284D01*
X10748082Y-14322284D02*
X10719511Y-14322284D01*
X10900463Y-14322284D02*
X10881415Y-14312760D01*
X10881415Y-14312760D02*
X10871892Y-14293712D01*
X10871892Y-14293712D02*
X10871892Y-14122284D01*
X11052844Y-14312760D02*
X11033796Y-14322284D01*
X11033796Y-14322284D02*
X10995701Y-14322284D01*
X10995701Y-14322284D02*
X10976653Y-14312760D01*
X10976653Y-14312760D02*
X10967130Y-14293712D01*
X10967130Y-14293712D02*
X10967130Y-14217522D01*
X10967130Y-14217522D02*
X10976653Y-14198474D01*
X10976653Y-14198474D02*
X10995701Y-14188950D01*
X10995701Y-14188950D02*
X11033796Y-14188950D01*
X11033796Y-14188950D02*
X11052844Y-14198474D01*
X11052844Y-14198474D02*
X11062368Y-14217522D01*
X11062368Y-14217522D02*
X11062368Y-14236569D01*
X11062368Y-14236569D02*
X10967130Y-14255617D01*
X11138558Y-14312760D02*
X11157606Y-14322284D01*
X11157606Y-14322284D02*
X11195701Y-14322284D01*
X11195701Y-14322284D02*
X11214749Y-14312760D01*
X11214749Y-14312760D02*
X11224272Y-14293712D01*
X11224272Y-14293712D02*
X11224272Y-14284188D01*
X11224272Y-14284188D02*
X11214749Y-14265141D01*
X11214749Y-14265141D02*
X11195701Y-14255617D01*
X11195701Y-14255617D02*
X11167130Y-14255617D01*
X11167130Y-14255617D02*
X11148082Y-14246093D01*
X11148082Y-14246093D02*
X11138558Y-14227046D01*
X11138558Y-14227046D02*
X11138558Y-14217522D01*
X11138558Y-14217522D02*
X11148082Y-14198474D01*
X11148082Y-14198474D02*
X11167130Y-14188950D01*
X11167130Y-14188950D02*
X11195701Y-14188950D01*
X11195701Y-14188950D02*
X11214749Y-14198474D01*
X11290939Y-14398474D02*
X11300463Y-14388950D01*
X11300463Y-14388950D02*
X11319511Y-14360379D01*
X11319511Y-14360379D02*
X11329034Y-14341331D01*
X11329034Y-14341331D02*
X11338558Y-14312760D01*
X11338558Y-14312760D02*
X11348082Y-14265141D01*
X11348082Y-14265141D02*
X11348082Y-14227046D01*
X11348082Y-14227046D02*
X11338558Y-14179427D01*
X11338558Y-14179427D02*
X11329034Y-14150855D01*
X11329034Y-14150855D02*
X11319511Y-14131808D01*
X11319511Y-14131808D02*
X11300463Y-14103236D01*
X11300463Y-14103236D02*
X11290939Y-14093712D01*
D12*
X6325400Y-14494800D02*
G75*
G02*
X6236500Y-14494800I-44450J0D01*
G01*
X6236500Y-14494800D02*
G75*
G02*
X6325400Y-14494800I44450J0D01*
G01*
D11*
X6624272Y-14386284D02*
X6643320Y-14386284D01*
X6643320Y-14386284D02*
X6662367Y-14395808D01*
X6662367Y-14395808D02*
X6671891Y-14405331D01*
X6671891Y-14405331D02*
X6681415Y-14424379D01*
X6681415Y-14424379D02*
X6690939Y-14462474D01*
X6690939Y-14462474D02*
X6690939Y-14510093D01*
X6690939Y-14510093D02*
X6681415Y-14548188D01*
X6681415Y-14548188D02*
X6671891Y-14567236D01*
X6671891Y-14567236D02*
X6662367Y-14576760D01*
X6662367Y-14576760D02*
X6643320Y-14586284D01*
X6643320Y-14586284D02*
X6624272Y-14586284D01*
X6624272Y-14586284D02*
X6605224Y-14576760D01*
X6605224Y-14576760D02*
X6595701Y-14567236D01*
X6595701Y-14567236D02*
X6586177Y-14548188D01*
X6586177Y-14548188D02*
X6576653Y-14510093D01*
X6576653Y-14510093D02*
X6576653Y-14462474D01*
X6576653Y-14462474D02*
X6586177Y-14424379D01*
X6586177Y-14424379D02*
X6595701Y-14405331D01*
X6595701Y-14405331D02*
X6605224Y-14395808D01*
X6605224Y-14395808D02*
X6624272Y-14386284D01*
X6776653Y-14567236D02*
X6786177Y-14576760D01*
X6786177Y-14576760D02*
X6776653Y-14586284D01*
X6776653Y-14586284D02*
X6767129Y-14576760D01*
X6767129Y-14576760D02*
X6776653Y-14567236D01*
X6776653Y-14567236D02*
X6776653Y-14586284D01*
X6900462Y-14471998D02*
X6881415Y-14462474D01*
X6881415Y-14462474D02*
X6871891Y-14452950D01*
X6871891Y-14452950D02*
X6862367Y-14433903D01*
X6862367Y-14433903D02*
X6862367Y-14424379D01*
X6862367Y-14424379D02*
X6871891Y-14405331D01*
X6871891Y-14405331D02*
X6881415Y-14395808D01*
X6881415Y-14395808D02*
X6900462Y-14386284D01*
X6900462Y-14386284D02*
X6938558Y-14386284D01*
X6938558Y-14386284D02*
X6957605Y-14395808D01*
X6957605Y-14395808D02*
X6967129Y-14405331D01*
X6967129Y-14405331D02*
X6976653Y-14424379D01*
X6976653Y-14424379D02*
X6976653Y-14433903D01*
X6976653Y-14433903D02*
X6967129Y-14452950D01*
X6967129Y-14452950D02*
X6957605Y-14462474D01*
X6957605Y-14462474D02*
X6938558Y-14471998D01*
X6938558Y-14471998D02*
X6900462Y-14471998D01*
X6900462Y-14471998D02*
X6881415Y-14481522D01*
X6881415Y-14481522D02*
X6871891Y-14491046D01*
X6871891Y-14491046D02*
X6862367Y-14510093D01*
X6862367Y-14510093D02*
X6862367Y-14548188D01*
X6862367Y-14548188D02*
X6871891Y-14567236D01*
X6871891Y-14567236D02*
X6881415Y-14576760D01*
X6881415Y-14576760D02*
X6900462Y-14586284D01*
X6900462Y-14586284D02*
X6938558Y-14586284D01*
X6938558Y-14586284D02*
X6957605Y-14576760D01*
X6957605Y-14576760D02*
X6967129Y-14567236D01*
X6967129Y-14567236D02*
X6976653Y-14548188D01*
X6976653Y-14548188D02*
X6976653Y-14510093D01*
X6976653Y-14510093D02*
X6967129Y-14491046D01*
X6967129Y-14491046D02*
X6957605Y-14481522D01*
X6957605Y-14481522D02*
X6938558Y-14471998D01*
X7090939Y-14471998D02*
X7071891Y-14462474D01*
X7071891Y-14462474D02*
X7062367Y-14452950D01*
X7062367Y-14452950D02*
X7052843Y-14433903D01*
X7052843Y-14433903D02*
X7052843Y-14424379D01*
X7052843Y-14424379D02*
X7062367Y-14405331D01*
X7062367Y-14405331D02*
X7071891Y-14395808D01*
X7071891Y-14395808D02*
X7090939Y-14386284D01*
X7090939Y-14386284D02*
X7129034Y-14386284D01*
X7129034Y-14386284D02*
X7148082Y-14395808D01*
X7148082Y-14395808D02*
X7157605Y-14405331D01*
X7157605Y-14405331D02*
X7167129Y-14424379D01*
X7167129Y-14424379D02*
X7167129Y-14433903D01*
X7167129Y-14433903D02*
X7157605Y-14452950D01*
X7157605Y-14452950D02*
X7148082Y-14462474D01*
X7148082Y-14462474D02*
X7129034Y-14471998D01*
X7129034Y-14471998D02*
X7090939Y-14471998D01*
X7090939Y-14471998D02*
X7071891Y-14481522D01*
X7071891Y-14481522D02*
X7062367Y-14491046D01*
X7062367Y-14491046D02*
X7052843Y-14510093D01*
X7052843Y-14510093D02*
X7052843Y-14548188D01*
X7052843Y-14548188D02*
X7062367Y-14567236D01*
X7062367Y-14567236D02*
X7071891Y-14576760D01*
X7071891Y-14576760D02*
X7090939Y-14586284D01*
X7090939Y-14586284D02*
X7129034Y-14586284D01*
X7129034Y-14586284D02*
X7148082Y-14576760D01*
X7148082Y-14576760D02*
X7157605Y-14567236D01*
X7157605Y-14567236D02*
X7167129Y-14548188D01*
X7167129Y-14548188D02*
X7167129Y-14510093D01*
X7167129Y-14510093D02*
X7157605Y-14491046D01*
X7157605Y-14491046D02*
X7148082Y-14481522D01*
X7148082Y-14481522D02*
X7129034Y-14471998D01*
X7262367Y-14586284D02*
X7300462Y-14586284D01*
X7300462Y-14586284D02*
X7319510Y-14576760D01*
X7319510Y-14576760D02*
X7329034Y-14567236D01*
X7329034Y-14567236D02*
X7348082Y-14538665D01*
X7348082Y-14538665D02*
X7357605Y-14500569D01*
X7357605Y-14500569D02*
X7357605Y-14424379D01*
X7357605Y-14424379D02*
X7348082Y-14405331D01*
X7348082Y-14405331D02*
X7338558Y-14395808D01*
X7338558Y-14395808D02*
X7319510Y-14386284D01*
X7319510Y-14386284D02*
X7281415Y-14386284D01*
X7281415Y-14386284D02*
X7262367Y-14395808D01*
X7262367Y-14395808D02*
X7252843Y-14405331D01*
X7252843Y-14405331D02*
X7243320Y-14424379D01*
X7243320Y-14424379D02*
X7243320Y-14471998D01*
X7243320Y-14471998D02*
X7252843Y-14491046D01*
X7252843Y-14491046D02*
X7262367Y-14500569D01*
X7262367Y-14500569D02*
X7281415Y-14510093D01*
X7281415Y-14510093D02*
X7319510Y-14510093D01*
X7319510Y-14510093D02*
X7338558Y-14500569D01*
X7338558Y-14500569D02*
X7348082Y-14491046D01*
X7348082Y-14491046D02*
X7357605Y-14471998D01*
X7443320Y-14586284D02*
X7443320Y-14452950D01*
X7443320Y-14471998D02*
X7452843Y-14462474D01*
X7452843Y-14462474D02*
X7471891Y-14452950D01*
X7471891Y-14452950D02*
X7500463Y-14452950D01*
X7500463Y-14452950D02*
X7519510Y-14462474D01*
X7519510Y-14462474D02*
X7529034Y-14481522D01*
X7529034Y-14481522D02*
X7529034Y-14586284D01*
X7529034Y-14481522D02*
X7538558Y-14462474D01*
X7538558Y-14462474D02*
X7557605Y-14452950D01*
X7557605Y-14452950D02*
X7586177Y-14452950D01*
X7586177Y-14452950D02*
X7605224Y-14462474D01*
X7605224Y-14462474D02*
X7614748Y-14481522D01*
X7614748Y-14481522D02*
X7614748Y-14586284D01*
X7709986Y-14586284D02*
X7709986Y-14452950D01*
X7709986Y-14471998D02*
X7719510Y-14462474D01*
X7719510Y-14462474D02*
X7738558Y-14452950D01*
X7738558Y-14452950D02*
X7767129Y-14452950D01*
X7767129Y-14452950D02*
X7786177Y-14462474D01*
X7786177Y-14462474D02*
X7795701Y-14481522D01*
X7795701Y-14481522D02*
X7795701Y-14586284D01*
X7795701Y-14481522D02*
X7805224Y-14462474D01*
X7805224Y-14462474D02*
X7824272Y-14452950D01*
X7824272Y-14452950D02*
X7852843Y-14452950D01*
X7852843Y-14452950D02*
X7871891Y-14462474D01*
X7871891Y-14462474D02*
X7881415Y-14481522D01*
X7881415Y-14481522D02*
X7881415Y-14586284D01*
X8271891Y-14376760D02*
X8100463Y-14633903D01*
X8529034Y-14386284D02*
X8548082Y-14386284D01*
X8548082Y-14386284D02*
X8567129Y-14395808D01*
X8567129Y-14395808D02*
X8576653Y-14405331D01*
X8576653Y-14405331D02*
X8586177Y-14424379D01*
X8586177Y-14424379D02*
X8595701Y-14462474D01*
X8595701Y-14462474D02*
X8595701Y-14510093D01*
X8595701Y-14510093D02*
X8586177Y-14548188D01*
X8586177Y-14548188D02*
X8576653Y-14567236D01*
X8576653Y-14567236D02*
X8567129Y-14576760D01*
X8567129Y-14576760D02*
X8548082Y-14586284D01*
X8548082Y-14586284D02*
X8529034Y-14586284D01*
X8529034Y-14586284D02*
X8509987Y-14576760D01*
X8509987Y-14576760D02*
X8500463Y-14567236D01*
X8500463Y-14567236D02*
X8490939Y-14548188D01*
X8490939Y-14548188D02*
X8481415Y-14510093D01*
X8481415Y-14510093D02*
X8481415Y-14462474D01*
X8481415Y-14462474D02*
X8490939Y-14424379D01*
X8490939Y-14424379D02*
X8500463Y-14405331D01*
X8500463Y-14405331D02*
X8509987Y-14395808D01*
X8509987Y-14395808D02*
X8529034Y-14386284D01*
X8681415Y-14567236D02*
X8690939Y-14576760D01*
X8690939Y-14576760D02*
X8681415Y-14586284D01*
X8681415Y-14586284D02*
X8671891Y-14576760D01*
X8671891Y-14576760D02*
X8681415Y-14567236D01*
X8681415Y-14567236D02*
X8681415Y-14586284D01*
X8814748Y-14386284D02*
X8833796Y-14386284D01*
X8833796Y-14386284D02*
X8852844Y-14395808D01*
X8852844Y-14395808D02*
X8862368Y-14405331D01*
X8862368Y-14405331D02*
X8871891Y-14424379D01*
X8871891Y-14424379D02*
X8881415Y-14462474D01*
X8881415Y-14462474D02*
X8881415Y-14510093D01*
X8881415Y-14510093D02*
X8871891Y-14548188D01*
X8871891Y-14548188D02*
X8862368Y-14567236D01*
X8862368Y-14567236D02*
X8852844Y-14576760D01*
X8852844Y-14576760D02*
X8833796Y-14586284D01*
X8833796Y-14586284D02*
X8814748Y-14586284D01*
X8814748Y-14586284D02*
X8795701Y-14576760D01*
X8795701Y-14576760D02*
X8786177Y-14567236D01*
X8786177Y-14567236D02*
X8776653Y-14548188D01*
X8776653Y-14548188D02*
X8767129Y-14510093D01*
X8767129Y-14510093D02*
X8767129Y-14462474D01*
X8767129Y-14462474D02*
X8776653Y-14424379D01*
X8776653Y-14424379D02*
X8786177Y-14405331D01*
X8786177Y-14405331D02*
X8795701Y-14395808D01*
X8795701Y-14395808D02*
X8814748Y-14386284D01*
X8948082Y-14386284D02*
X9071891Y-14386284D01*
X9071891Y-14386284D02*
X9005225Y-14462474D01*
X9005225Y-14462474D02*
X9033796Y-14462474D01*
X9033796Y-14462474D02*
X9052844Y-14471998D01*
X9052844Y-14471998D02*
X9062368Y-14481522D01*
X9062368Y-14481522D02*
X9071891Y-14500569D01*
X9071891Y-14500569D02*
X9071891Y-14548188D01*
X9071891Y-14548188D02*
X9062368Y-14567236D01*
X9062368Y-14567236D02*
X9052844Y-14576760D01*
X9052844Y-14576760D02*
X9033796Y-14586284D01*
X9033796Y-14586284D02*
X8976653Y-14586284D01*
X8976653Y-14586284D02*
X8957606Y-14576760D01*
X8957606Y-14576760D02*
X8948082Y-14567236D01*
X9252844Y-14386284D02*
X9157606Y-14386284D01*
X9157606Y-14386284D02*
X9148082Y-14481522D01*
X9148082Y-14481522D02*
X9157606Y-14471998D01*
X9157606Y-14471998D02*
X9176653Y-14462474D01*
X9176653Y-14462474D02*
X9224272Y-14462474D01*
X9224272Y-14462474D02*
X9243320Y-14471998D01*
X9243320Y-14471998D02*
X9252844Y-14481522D01*
X9252844Y-14481522D02*
X9262368Y-14500569D01*
X9262368Y-14500569D02*
X9262368Y-14548188D01*
X9262368Y-14548188D02*
X9252844Y-14567236D01*
X9252844Y-14567236D02*
X9243320Y-14576760D01*
X9243320Y-14576760D02*
X9224272Y-14586284D01*
X9224272Y-14586284D02*
X9176653Y-14586284D01*
X9176653Y-14586284D02*
X9157606Y-14576760D01*
X9157606Y-14576760D02*
X9148082Y-14567236D01*
X9386177Y-14386284D02*
X9405225Y-14386284D01*
X9405225Y-14386284D02*
X9424272Y-14395808D01*
X9424272Y-14395808D02*
X9433796Y-14405331D01*
X9433796Y-14405331D02*
X9443320Y-14424379D01*
X9443320Y-14424379D02*
X9452844Y-14462474D01*
X9452844Y-14462474D02*
X9452844Y-14510093D01*
X9452844Y-14510093D02*
X9443320Y-14548188D01*
X9443320Y-14548188D02*
X9433796Y-14567236D01*
X9433796Y-14567236D02*
X9424272Y-14576760D01*
X9424272Y-14576760D02*
X9405225Y-14586284D01*
X9405225Y-14586284D02*
X9386177Y-14586284D01*
X9386177Y-14586284D02*
X9367129Y-14576760D01*
X9367129Y-14576760D02*
X9357606Y-14567236D01*
X9357606Y-14567236D02*
X9348082Y-14548188D01*
X9348082Y-14548188D02*
X9338558Y-14510093D01*
X9338558Y-14510093D02*
X9338558Y-14462474D01*
X9338558Y-14462474D02*
X9348082Y-14424379D01*
X9348082Y-14424379D02*
X9357606Y-14405331D01*
X9357606Y-14405331D02*
X9367129Y-14395808D01*
X9367129Y-14395808D02*
X9386177Y-14386284D01*
X9529034Y-14386284D02*
X9529034Y-14424379D01*
X9605225Y-14386284D02*
X9605225Y-14424379D01*
X9900463Y-14662474D02*
X9890939Y-14652950D01*
X9890939Y-14652950D02*
X9871891Y-14624379D01*
X9871891Y-14624379D02*
X9862368Y-14605331D01*
X9862368Y-14605331D02*
X9852844Y-14576760D01*
X9852844Y-14576760D02*
X9843320Y-14529141D01*
X9843320Y-14529141D02*
X9843320Y-14491046D01*
X9843320Y-14491046D02*
X9852844Y-14443427D01*
X9852844Y-14443427D02*
X9862368Y-14414855D01*
X9862368Y-14414855D02*
X9871891Y-14395808D01*
X9871891Y-14395808D02*
X9890939Y-14367236D01*
X9890939Y-14367236D02*
X9900463Y-14357712D01*
X9967130Y-14405331D02*
X9976653Y-14395808D01*
X9976653Y-14395808D02*
X9995701Y-14386284D01*
X9995701Y-14386284D02*
X10043320Y-14386284D01*
X10043320Y-14386284D02*
X10062368Y-14395808D01*
X10062368Y-14395808D02*
X10071891Y-14405331D01*
X10071891Y-14405331D02*
X10081415Y-14424379D01*
X10081415Y-14424379D02*
X10081415Y-14443427D01*
X10081415Y-14443427D02*
X10071891Y-14471998D01*
X10071891Y-14471998D02*
X9957606Y-14586284D01*
X9957606Y-14586284D02*
X10081415Y-14586284D01*
X10252844Y-14386284D02*
X10214749Y-14386284D01*
X10214749Y-14386284D02*
X10195701Y-14395808D01*
X10195701Y-14395808D02*
X10186177Y-14405331D01*
X10186177Y-14405331D02*
X10167130Y-14433903D01*
X10167130Y-14433903D02*
X10157606Y-14471998D01*
X10157606Y-14471998D02*
X10157606Y-14548188D01*
X10157606Y-14548188D02*
X10167130Y-14567236D01*
X10167130Y-14567236D02*
X10176653Y-14576760D01*
X10176653Y-14576760D02*
X10195701Y-14586284D01*
X10195701Y-14586284D02*
X10233796Y-14586284D01*
X10233796Y-14586284D02*
X10252844Y-14576760D01*
X10252844Y-14576760D02*
X10262368Y-14567236D01*
X10262368Y-14567236D02*
X10271891Y-14548188D01*
X10271891Y-14548188D02*
X10271891Y-14500569D01*
X10271891Y-14500569D02*
X10262368Y-14481522D01*
X10262368Y-14481522D02*
X10252844Y-14471998D01*
X10252844Y-14471998D02*
X10233796Y-14462474D01*
X10233796Y-14462474D02*
X10195701Y-14462474D01*
X10195701Y-14462474D02*
X10176653Y-14471998D01*
X10176653Y-14471998D02*
X10167130Y-14481522D01*
X10167130Y-14481522D02*
X10157606Y-14500569D01*
X10509987Y-14586284D02*
X10509987Y-14386284D01*
X10595701Y-14586284D02*
X10595701Y-14481522D01*
X10595701Y-14481522D02*
X10586177Y-14462474D01*
X10586177Y-14462474D02*
X10567130Y-14452950D01*
X10567130Y-14452950D02*
X10538558Y-14452950D01*
X10538558Y-14452950D02*
X10519511Y-14462474D01*
X10519511Y-14462474D02*
X10509987Y-14471998D01*
X10719511Y-14586284D02*
X10700463Y-14576760D01*
X10700463Y-14576760D02*
X10690939Y-14567236D01*
X10690939Y-14567236D02*
X10681415Y-14548188D01*
X10681415Y-14548188D02*
X10681415Y-14491046D01*
X10681415Y-14491046D02*
X10690939Y-14471998D01*
X10690939Y-14471998D02*
X10700463Y-14462474D01*
X10700463Y-14462474D02*
X10719511Y-14452950D01*
X10719511Y-14452950D02*
X10748082Y-14452950D01*
X10748082Y-14452950D02*
X10767130Y-14462474D01*
X10767130Y-14462474D02*
X10776653Y-14471998D01*
X10776653Y-14471998D02*
X10786177Y-14491046D01*
X10786177Y-14491046D02*
X10786177Y-14548188D01*
X10786177Y-14548188D02*
X10776653Y-14567236D01*
X10776653Y-14567236D02*
X10767130Y-14576760D01*
X10767130Y-14576760D02*
X10748082Y-14586284D01*
X10748082Y-14586284D02*
X10719511Y-14586284D01*
X10900463Y-14586284D02*
X10881415Y-14576760D01*
X10881415Y-14576760D02*
X10871892Y-14557712D01*
X10871892Y-14557712D02*
X10871892Y-14386284D01*
X11052844Y-14576760D02*
X11033796Y-14586284D01*
X11033796Y-14586284D02*
X10995701Y-14586284D01*
X10995701Y-14586284D02*
X10976653Y-14576760D01*
X10976653Y-14576760D02*
X10967130Y-14557712D01*
X10967130Y-14557712D02*
X10967130Y-14481522D01*
X10967130Y-14481522D02*
X10976653Y-14462474D01*
X10976653Y-14462474D02*
X10995701Y-14452950D01*
X10995701Y-14452950D02*
X11033796Y-14452950D01*
X11033796Y-14452950D02*
X11052844Y-14462474D01*
X11052844Y-14462474D02*
X11062368Y-14481522D01*
X11062368Y-14481522D02*
X11062368Y-14500569D01*
X11062368Y-14500569D02*
X10967130Y-14519617D01*
X11138558Y-14576760D02*
X11157606Y-14586284D01*
X11157606Y-14586284D02*
X11195701Y-14586284D01*
X11195701Y-14586284D02*
X11214749Y-14576760D01*
X11214749Y-14576760D02*
X11224272Y-14557712D01*
X11224272Y-14557712D02*
X11224272Y-14548188D01*
X11224272Y-14548188D02*
X11214749Y-14529141D01*
X11214749Y-14529141D02*
X11195701Y-14519617D01*
X11195701Y-14519617D02*
X11167130Y-14519617D01*
X11167130Y-14519617D02*
X11148082Y-14510093D01*
X11148082Y-14510093D02*
X11138558Y-14491046D01*
X11138558Y-14491046D02*
X11138558Y-14481522D01*
X11138558Y-14481522D02*
X11148082Y-14462474D01*
X11148082Y-14462474D02*
X11167130Y-14452950D01*
X11167130Y-14452950D02*
X11195701Y-14452950D01*
X11195701Y-14452950D02*
X11214749Y-14462474D01*
X11290939Y-14662474D02*
X11300463Y-14652950D01*
X11300463Y-14652950D02*
X11319511Y-14624379D01*
X11319511Y-14624379D02*
X11329034Y-14605331D01*
X11329034Y-14605331D02*
X11338558Y-14576760D01*
X11338558Y-14576760D02*
X11348082Y-14529141D01*
X11348082Y-14529141D02*
X11348082Y-14491046D01*
X11348082Y-14491046D02*
X11338558Y-14443427D01*
X11338558Y-14443427D02*
X11329034Y-14414855D01*
X11329034Y-14414855D02*
X11319511Y-14395808D01*
X11319511Y-14395808D02*
X11300463Y-14367236D01*
X11300463Y-14367236D02*
X11290939Y-14357712D01*
D13*
X6240400Y-14673800D02*
X6240400Y-14843800D01*
X6155400Y-14758800D02*
X6325400Y-14758800D01*
D11*
X6690939Y-14850284D02*
X6576653Y-14850284D01*
X6633796Y-14850284D02*
X6633796Y-14650284D01*
X6633796Y-14650284D02*
X6614748Y-14678855D01*
X6614748Y-14678855D02*
X6595701Y-14697903D01*
X6595701Y-14697903D02*
X6576653Y-14707427D01*
X6776653Y-14831236D02*
X6786177Y-14840760D01*
X6786177Y-14840760D02*
X6776653Y-14850284D01*
X6776653Y-14850284D02*
X6767129Y-14840760D01*
X6767129Y-14840760D02*
X6776653Y-14831236D01*
X6776653Y-14831236D02*
X6776653Y-14850284D01*
X6852843Y-14650284D02*
X6986177Y-14650284D01*
X6986177Y-14650284D02*
X6900462Y-14850284D01*
X7100462Y-14650284D02*
X7119510Y-14650284D01*
X7119510Y-14650284D02*
X7138558Y-14659808D01*
X7138558Y-14659808D02*
X7148082Y-14669331D01*
X7148082Y-14669331D02*
X7157605Y-14688379D01*
X7157605Y-14688379D02*
X7167129Y-14726474D01*
X7167129Y-14726474D02*
X7167129Y-14774093D01*
X7167129Y-14774093D02*
X7157605Y-14812188D01*
X7157605Y-14812188D02*
X7148082Y-14831236D01*
X7148082Y-14831236D02*
X7138558Y-14840760D01*
X7138558Y-14840760D02*
X7119510Y-14850284D01*
X7119510Y-14850284D02*
X7100462Y-14850284D01*
X7100462Y-14850284D02*
X7081415Y-14840760D01*
X7081415Y-14840760D02*
X7071891Y-14831236D01*
X7071891Y-14831236D02*
X7062367Y-14812188D01*
X7062367Y-14812188D02*
X7052843Y-14774093D01*
X7052843Y-14774093D02*
X7052843Y-14726474D01*
X7052843Y-14726474D02*
X7062367Y-14688379D01*
X7062367Y-14688379D02*
X7071891Y-14669331D01*
X7071891Y-14669331D02*
X7081415Y-14659808D01*
X7081415Y-14659808D02*
X7100462Y-14650284D01*
X7290939Y-14650284D02*
X7309986Y-14650284D01*
X7309986Y-14650284D02*
X7329034Y-14659808D01*
X7329034Y-14659808D02*
X7338558Y-14669331D01*
X7338558Y-14669331D02*
X7348082Y-14688379D01*
X7348082Y-14688379D02*
X7357605Y-14726474D01*
X7357605Y-14726474D02*
X7357605Y-14774093D01*
X7357605Y-14774093D02*
X7348082Y-14812188D01*
X7348082Y-14812188D02*
X7338558Y-14831236D01*
X7338558Y-14831236D02*
X7329034Y-14840760D01*
X7329034Y-14840760D02*
X7309986Y-14850284D01*
X7309986Y-14850284D02*
X7290939Y-14850284D01*
X7290939Y-14850284D02*
X7271891Y-14840760D01*
X7271891Y-14840760D02*
X7262367Y-14831236D01*
X7262367Y-14831236D02*
X7252843Y-14812188D01*
X7252843Y-14812188D02*
X7243320Y-14774093D01*
X7243320Y-14774093D02*
X7243320Y-14726474D01*
X7243320Y-14726474D02*
X7252843Y-14688379D01*
X7252843Y-14688379D02*
X7262367Y-14669331D01*
X7262367Y-14669331D02*
X7271891Y-14659808D01*
X7271891Y-14659808D02*
X7290939Y-14650284D01*
X7443320Y-14850284D02*
X7443320Y-14716950D01*
X7443320Y-14735998D02*
X7452843Y-14726474D01*
X7452843Y-14726474D02*
X7471891Y-14716950D01*
X7471891Y-14716950D02*
X7500463Y-14716950D01*
X7500463Y-14716950D02*
X7519510Y-14726474D01*
X7519510Y-14726474D02*
X7529034Y-14745522D01*
X7529034Y-14745522D02*
X7529034Y-14850284D01*
X7529034Y-14745522D02*
X7538558Y-14726474D01*
X7538558Y-14726474D02*
X7557605Y-14716950D01*
X7557605Y-14716950D02*
X7586177Y-14716950D01*
X7586177Y-14716950D02*
X7605224Y-14726474D01*
X7605224Y-14726474D02*
X7614748Y-14745522D01*
X7614748Y-14745522D02*
X7614748Y-14850284D01*
X7709986Y-14850284D02*
X7709986Y-14716950D01*
X7709986Y-14735998D02*
X7719510Y-14726474D01*
X7719510Y-14726474D02*
X7738558Y-14716950D01*
X7738558Y-14716950D02*
X7767129Y-14716950D01*
X7767129Y-14716950D02*
X7786177Y-14726474D01*
X7786177Y-14726474D02*
X7795701Y-14745522D01*
X7795701Y-14745522D02*
X7795701Y-14850284D01*
X7795701Y-14745522D02*
X7805224Y-14726474D01*
X7805224Y-14726474D02*
X7824272Y-14716950D01*
X7824272Y-14716950D02*
X7852843Y-14716950D01*
X7852843Y-14716950D02*
X7871891Y-14726474D01*
X7871891Y-14726474D02*
X7881415Y-14745522D01*
X7881415Y-14745522D02*
X7881415Y-14850284D01*
X8271891Y-14640760D02*
X8100463Y-14897903D01*
X8529034Y-14650284D02*
X8548082Y-14650284D01*
X8548082Y-14650284D02*
X8567129Y-14659808D01*
X8567129Y-14659808D02*
X8576653Y-14669331D01*
X8576653Y-14669331D02*
X8586177Y-14688379D01*
X8586177Y-14688379D02*
X8595701Y-14726474D01*
X8595701Y-14726474D02*
X8595701Y-14774093D01*
X8595701Y-14774093D02*
X8586177Y-14812188D01*
X8586177Y-14812188D02*
X8576653Y-14831236D01*
X8576653Y-14831236D02*
X8567129Y-14840760D01*
X8567129Y-14840760D02*
X8548082Y-14850284D01*
X8548082Y-14850284D02*
X8529034Y-14850284D01*
X8529034Y-14850284D02*
X8509987Y-14840760D01*
X8509987Y-14840760D02*
X8500463Y-14831236D01*
X8500463Y-14831236D02*
X8490939Y-14812188D01*
X8490939Y-14812188D02*
X8481415Y-14774093D01*
X8481415Y-14774093D02*
X8481415Y-14726474D01*
X8481415Y-14726474D02*
X8490939Y-14688379D01*
X8490939Y-14688379D02*
X8500463Y-14669331D01*
X8500463Y-14669331D02*
X8509987Y-14659808D01*
X8509987Y-14659808D02*
X8529034Y-14650284D01*
X8681415Y-14831236D02*
X8690939Y-14840760D01*
X8690939Y-14840760D02*
X8681415Y-14850284D01*
X8681415Y-14850284D02*
X8671891Y-14840760D01*
X8671891Y-14840760D02*
X8681415Y-14831236D01*
X8681415Y-14831236D02*
X8681415Y-14850284D01*
X8814748Y-14650284D02*
X8833796Y-14650284D01*
X8833796Y-14650284D02*
X8852844Y-14659808D01*
X8852844Y-14659808D02*
X8862368Y-14669331D01*
X8862368Y-14669331D02*
X8871891Y-14688379D01*
X8871891Y-14688379D02*
X8881415Y-14726474D01*
X8881415Y-14726474D02*
X8881415Y-14774093D01*
X8881415Y-14774093D02*
X8871891Y-14812188D01*
X8871891Y-14812188D02*
X8862368Y-14831236D01*
X8862368Y-14831236D02*
X8852844Y-14840760D01*
X8852844Y-14840760D02*
X8833796Y-14850284D01*
X8833796Y-14850284D02*
X8814748Y-14850284D01*
X8814748Y-14850284D02*
X8795701Y-14840760D01*
X8795701Y-14840760D02*
X8786177Y-14831236D01*
X8786177Y-14831236D02*
X8776653Y-14812188D01*
X8776653Y-14812188D02*
X8767129Y-14774093D01*
X8767129Y-14774093D02*
X8767129Y-14726474D01*
X8767129Y-14726474D02*
X8776653Y-14688379D01*
X8776653Y-14688379D02*
X8786177Y-14669331D01*
X8786177Y-14669331D02*
X8795701Y-14659808D01*
X8795701Y-14659808D02*
X8814748Y-14650284D01*
X9052844Y-14650284D02*
X9014748Y-14650284D01*
X9014748Y-14650284D02*
X8995701Y-14659808D01*
X8995701Y-14659808D02*
X8986177Y-14669331D01*
X8986177Y-14669331D02*
X8967129Y-14697903D01*
X8967129Y-14697903D02*
X8957606Y-14735998D01*
X8957606Y-14735998D02*
X8957606Y-14812188D01*
X8957606Y-14812188D02*
X8967129Y-14831236D01*
X8967129Y-14831236D02*
X8976653Y-14840760D01*
X8976653Y-14840760D02*
X8995701Y-14850284D01*
X8995701Y-14850284D02*
X9033796Y-14850284D01*
X9033796Y-14850284D02*
X9052844Y-14840760D01*
X9052844Y-14840760D02*
X9062368Y-14831236D01*
X9062368Y-14831236D02*
X9071891Y-14812188D01*
X9071891Y-14812188D02*
X9071891Y-14764569D01*
X9071891Y-14764569D02*
X9062368Y-14745522D01*
X9062368Y-14745522D02*
X9052844Y-14735998D01*
X9052844Y-14735998D02*
X9033796Y-14726474D01*
X9033796Y-14726474D02*
X8995701Y-14726474D01*
X8995701Y-14726474D02*
X8976653Y-14735998D01*
X8976653Y-14735998D02*
X8967129Y-14745522D01*
X8967129Y-14745522D02*
X8957606Y-14764569D01*
X9243320Y-14650284D02*
X9205225Y-14650284D01*
X9205225Y-14650284D02*
X9186177Y-14659808D01*
X9186177Y-14659808D02*
X9176653Y-14669331D01*
X9176653Y-14669331D02*
X9157606Y-14697903D01*
X9157606Y-14697903D02*
X9148082Y-14735998D01*
X9148082Y-14735998D02*
X9148082Y-14812188D01*
X9148082Y-14812188D02*
X9157606Y-14831236D01*
X9157606Y-14831236D02*
X9167129Y-14840760D01*
X9167129Y-14840760D02*
X9186177Y-14850284D01*
X9186177Y-14850284D02*
X9224272Y-14850284D01*
X9224272Y-14850284D02*
X9243320Y-14840760D01*
X9243320Y-14840760D02*
X9252844Y-14831236D01*
X9252844Y-14831236D02*
X9262368Y-14812188D01*
X9262368Y-14812188D02*
X9262368Y-14764569D01*
X9262368Y-14764569D02*
X9252844Y-14745522D01*
X9252844Y-14745522D02*
X9243320Y-14735998D01*
X9243320Y-14735998D02*
X9224272Y-14726474D01*
X9224272Y-14726474D02*
X9186177Y-14726474D01*
X9186177Y-14726474D02*
X9167129Y-14735998D01*
X9167129Y-14735998D02*
X9157606Y-14745522D01*
X9157606Y-14745522D02*
X9148082Y-14764569D01*
X9357606Y-14850284D02*
X9395701Y-14850284D01*
X9395701Y-14850284D02*
X9414749Y-14840760D01*
X9414749Y-14840760D02*
X9424272Y-14831236D01*
X9424272Y-14831236D02*
X9443320Y-14802665D01*
X9443320Y-14802665D02*
X9452844Y-14764569D01*
X9452844Y-14764569D02*
X9452844Y-14688379D01*
X9452844Y-14688379D02*
X9443320Y-14669331D01*
X9443320Y-14669331D02*
X9433796Y-14659808D01*
X9433796Y-14659808D02*
X9414749Y-14650284D01*
X9414749Y-14650284D02*
X9376653Y-14650284D01*
X9376653Y-14650284D02*
X9357606Y-14659808D01*
X9357606Y-14659808D02*
X9348082Y-14669331D01*
X9348082Y-14669331D02*
X9338558Y-14688379D01*
X9338558Y-14688379D02*
X9338558Y-14735998D01*
X9338558Y-14735998D02*
X9348082Y-14755046D01*
X9348082Y-14755046D02*
X9357606Y-14764569D01*
X9357606Y-14764569D02*
X9376653Y-14774093D01*
X9376653Y-14774093D02*
X9414749Y-14774093D01*
X9414749Y-14774093D02*
X9433796Y-14764569D01*
X9433796Y-14764569D02*
X9443320Y-14755046D01*
X9443320Y-14755046D02*
X9452844Y-14735998D01*
X9529034Y-14650284D02*
X9529034Y-14688379D01*
X9605225Y-14650284D02*
X9605225Y-14688379D01*
X9900463Y-14926474D02*
X9890939Y-14916950D01*
X9890939Y-14916950D02*
X9871891Y-14888379D01*
X9871891Y-14888379D02*
X9862368Y-14869331D01*
X9862368Y-14869331D02*
X9852844Y-14840760D01*
X9852844Y-14840760D02*
X9843320Y-14793141D01*
X9843320Y-14793141D02*
X9843320Y-14755046D01*
X9843320Y-14755046D02*
X9852844Y-14707427D01*
X9852844Y-14707427D02*
X9862368Y-14678855D01*
X9862368Y-14678855D02*
X9871891Y-14659808D01*
X9871891Y-14659808D02*
X9890939Y-14631236D01*
X9890939Y-14631236D02*
X9900463Y-14621712D01*
X9967130Y-14669331D02*
X9976653Y-14659808D01*
X9976653Y-14659808D02*
X9995701Y-14650284D01*
X9995701Y-14650284D02*
X10043320Y-14650284D01*
X10043320Y-14650284D02*
X10062368Y-14659808D01*
X10062368Y-14659808D02*
X10071891Y-14669331D01*
X10071891Y-14669331D02*
X10081415Y-14688379D01*
X10081415Y-14688379D02*
X10081415Y-14707427D01*
X10081415Y-14707427D02*
X10071891Y-14735998D01*
X10071891Y-14735998D02*
X9957606Y-14850284D01*
X9957606Y-14850284D02*
X10081415Y-14850284D01*
X10319511Y-14850284D02*
X10319511Y-14650284D01*
X10405225Y-14850284D02*
X10405225Y-14745522D01*
X10405225Y-14745522D02*
X10395701Y-14726474D01*
X10395701Y-14726474D02*
X10376653Y-14716950D01*
X10376653Y-14716950D02*
X10348082Y-14716950D01*
X10348082Y-14716950D02*
X10329034Y-14726474D01*
X10329034Y-14726474D02*
X10319511Y-14735998D01*
X10529034Y-14850284D02*
X10509987Y-14840760D01*
X10509987Y-14840760D02*
X10500463Y-14831236D01*
X10500463Y-14831236D02*
X10490939Y-14812188D01*
X10490939Y-14812188D02*
X10490939Y-14755046D01*
X10490939Y-14755046D02*
X10500463Y-14735998D01*
X10500463Y-14735998D02*
X10509987Y-14726474D01*
X10509987Y-14726474D02*
X10529034Y-14716950D01*
X10529034Y-14716950D02*
X10557606Y-14716950D01*
X10557606Y-14716950D02*
X10576653Y-14726474D01*
X10576653Y-14726474D02*
X10586177Y-14735998D01*
X10586177Y-14735998D02*
X10595701Y-14755046D01*
X10595701Y-14755046D02*
X10595701Y-14812188D01*
X10595701Y-14812188D02*
X10586177Y-14831236D01*
X10586177Y-14831236D02*
X10576653Y-14840760D01*
X10576653Y-14840760D02*
X10557606Y-14850284D01*
X10557606Y-14850284D02*
X10529034Y-14850284D01*
X10709987Y-14850284D02*
X10690939Y-14840760D01*
X10690939Y-14840760D02*
X10681415Y-14821712D01*
X10681415Y-14821712D02*
X10681415Y-14650284D01*
X10862368Y-14840760D02*
X10843320Y-14850284D01*
X10843320Y-14850284D02*
X10805225Y-14850284D01*
X10805225Y-14850284D02*
X10786177Y-14840760D01*
X10786177Y-14840760D02*
X10776653Y-14821712D01*
X10776653Y-14821712D02*
X10776653Y-14745522D01*
X10776653Y-14745522D02*
X10786177Y-14726474D01*
X10786177Y-14726474D02*
X10805225Y-14716950D01*
X10805225Y-14716950D02*
X10843320Y-14716950D01*
X10843320Y-14716950D02*
X10862368Y-14726474D01*
X10862368Y-14726474D02*
X10871892Y-14745522D01*
X10871892Y-14745522D02*
X10871892Y-14764569D01*
X10871892Y-14764569D02*
X10776653Y-14783617D01*
X10948082Y-14840760D02*
X10967130Y-14850284D01*
X10967130Y-14850284D02*
X11005225Y-14850284D01*
X11005225Y-14850284D02*
X11024273Y-14840760D01*
X11024273Y-14840760D02*
X11033796Y-14821712D01*
X11033796Y-14821712D02*
X11033796Y-14812188D01*
X11033796Y-14812188D02*
X11024273Y-14793141D01*
X11024273Y-14793141D02*
X11005225Y-14783617D01*
X11005225Y-14783617D02*
X10976653Y-14783617D01*
X10976653Y-14783617D02*
X10957606Y-14774093D01*
X10957606Y-14774093D02*
X10948082Y-14755046D01*
X10948082Y-14755046D02*
X10948082Y-14745522D01*
X10948082Y-14745522D02*
X10957606Y-14726474D01*
X10957606Y-14726474D02*
X10976653Y-14716950D01*
X10976653Y-14716950D02*
X11005225Y-14716950D01*
X11005225Y-14716950D02*
X11024273Y-14726474D01*
X11100463Y-14926474D02*
X11109987Y-14916950D01*
X11109987Y-14916950D02*
X11129034Y-14888379D01*
X11129034Y-14888379D02*
X11138558Y-14869331D01*
X11138558Y-14869331D02*
X11148082Y-14840760D01*
X11148082Y-14840760D02*
X11157606Y-14793141D01*
X11157606Y-14793141D02*
X11157606Y-14755046D01*
X11157606Y-14755046D02*
X11148082Y-14707427D01*
X11148082Y-14707427D02*
X11138558Y-14678855D01*
X11138558Y-14678855D02*
X11129034Y-14659808D01*
X11129034Y-14659808D02*
X11109987Y-14631236D01*
X11109987Y-14631236D02*
X11100463Y-14621712D01*
M02*
