%TF.GenerationSoftware,KiCad,Pcbnew,9.0.4*%
%TF.CreationDate,2025-10-20T19:51:49+03:00*%
%TF.ProjectId,New Project_d4730bb7df3c48b986d1d5e0e3a7b4b5,4e657720-5072-46f6-9a65-63745f643437,rev?*%
%TF.SameCoordinates,Original*%
%TF.FileFunction,Paste,Top*%
%TF.FilePolarity,Positive*%
%FSLAX46Y46*%
G04 Gerber Fmt 4.6, Leading zero omitted, Abs format (unit mm)*
G04 Created by KiCad (PCBNEW 9.0.4) date 2025-10-20 19:51:49*
%MOMM*%
%LPD*%
G01*
G04 APERTURE LIST*
%ADD10R,0.900000X0.800000*%
%ADD11R,0.800000X0.900000*%
%ADD12R,1.397000X0.406000*%
%ADD13R,0.406000X1.397000*%
%ADD14O,1.692000X0.364000*%
%ADD15O,0.588000X2.045000*%
%ADD16O,1.971000X0.602000*%
%ADD17O,1.742000X0.364000*%
G04 APERTURE END LIST*
D10*
%TO.C,C1*%
X161044000Y-83522000D03*
X161044000Y-82122000D03*
%TD*%
D11*
%TO.C,C2*%
X154759000Y-86886000D03*
X153359000Y-86886000D03*
%TD*%
D10*
%TO.C,C3*%
X166124000Y-86062000D03*
X166124000Y-84662000D03*
%TD*%
D11*
%TO.C,C4*%
X173933000Y-81552000D03*
X175333000Y-81552000D03*
%TD*%
%TO.C,C5*%
X171015000Y-88156000D03*
X169615000Y-88156000D03*
%TD*%
%TO.C,C6*%
X160982000Y-92347000D03*
X159582000Y-92347000D03*
%TD*%
D10*
%TO.C,C7*%
X183142000Y-88094000D03*
X183142000Y-86693900D03*
%TD*%
%TO.C,C8*%
X189873000Y-77807000D03*
X189873000Y-76406900D03*
%TD*%
%TO.C,C9*%
X199017000Y-87713000D03*
X199017000Y-86312900D03*
%TD*%
%TO.C,C10*%
X192286000Y-77807000D03*
X192286000Y-76406900D03*
%TD*%
D11*
%TO.C,C11*%
X190446000Y-82187000D03*
X189045900Y-82187000D03*
%TD*%
%TO.C,C12*%
X194510000Y-82187000D03*
X193109900Y-82187000D03*
%TD*%
%TO.C,C13*%
X215846000Y-84346000D03*
X214445900Y-84346000D03*
%TD*%
%TO.C,C14*%
X218894000Y-77488000D03*
X217493900Y-77488000D03*
%TD*%
%TO.C,C15*%
X213560000Y-77234000D03*
X212159900Y-77234000D03*
%TD*%
D10*
%TO.C,C16*%
X218702000Y-84662000D03*
X218702000Y-86062100D03*
%TD*%
%TO.C,C17*%
X90940000Y-120225000D03*
X90940000Y-118825000D03*
%TD*%
%TO.C,C18*%
X87257000Y-76534000D03*
X87257000Y-77934000D03*
%TD*%
%TO.C,C19*%
X89797000Y-77804000D03*
X89797000Y-79204000D03*
%TD*%
%TO.C,C20*%
X95512000Y-77804000D03*
X95512000Y-79204000D03*
%TD*%
%TO.C,C21*%
X92337000Y-77804000D03*
X92337000Y-79204000D03*
%TD*%
D11*
%TO.C,C22*%
X219783000Y-88664000D03*
X218382900Y-88664000D03*
%TD*%
%TO.C,C23*%
X225244000Y-78758000D03*
X223843900Y-78758000D03*
%TD*%
%TO.C,C24*%
X215970000Y-91331000D03*
X217370100Y-91331000D03*
%TD*%
D10*
%TO.C,C25*%
X88146000Y-108795000D03*
X88146000Y-107395000D03*
%TD*%
%TO.C,C26*%
X97036000Y-116542000D03*
X97036000Y-115142000D03*
%TD*%
%TO.C,C27*%
X97163000Y-129242000D03*
X97163000Y-127842000D03*
%TD*%
D12*
%TO.C,DA1*%
X153410000Y-82862900D03*
X153410000Y-83512900D03*
X153410000Y-84163100D03*
X153410000Y-84813100D03*
X158010000Y-84813100D03*
X158010000Y-84163100D03*
X158010000Y-83512900D03*
X158010000Y-82862900D03*
%TD*%
%TO.C,DA2*%
X166872000Y-80957900D03*
X166872000Y-81607900D03*
X166872000Y-82258100D03*
X166872000Y-82908100D03*
X171472000Y-82908100D03*
X171472000Y-82258100D03*
X171472000Y-81607900D03*
X171472000Y-80957900D03*
%TD*%
%TO.C,DA3*%
X166491000Y-93276900D03*
X166491000Y-93926900D03*
X166491000Y-94577100D03*
X166491000Y-95227100D03*
X171091000Y-95227100D03*
X171091000Y-94577100D03*
X171091000Y-93926900D03*
X171091000Y-93276900D03*
%TD*%
%TO.C,DA4*%
X183128000Y-78163900D03*
X183128000Y-78813900D03*
X183128000Y-79464100D03*
X183128000Y-80114100D03*
X187728000Y-80114100D03*
X187728000Y-79464100D03*
X187728000Y-78813900D03*
X187728000Y-78163900D03*
%TD*%
D13*
%TO.C,DA7*%
X88948900Y-115856000D03*
X89598900Y-115856000D03*
X90249100Y-115856000D03*
X90899100Y-115856000D03*
X90899100Y-111256000D03*
X90249100Y-111256000D03*
X89598900Y-111256000D03*
X88948900Y-111256000D03*
%TD*%
%TO.C,DA9*%
X94663900Y-124746000D03*
X95313900Y-124746000D03*
X95964100Y-124746000D03*
X96614100Y-124746000D03*
X96614100Y-120146000D03*
X95964100Y-120146000D03*
X95313900Y-120146000D03*
X94663900Y-120146000D03*
%TD*%
D14*
%TO.C,DA5*%
X199030000Y-80830900D03*
X199030000Y-81481100D03*
X199030000Y-82131100D03*
X199030000Y-82781100D03*
X203322000Y-80830900D03*
X203322000Y-81481100D03*
X203322000Y-82131100D03*
X203322000Y-82781100D03*
%TD*%
%TO.C,DA6*%
X214524000Y-80195900D03*
X214524000Y-80846100D03*
X214524000Y-81496100D03*
X214524000Y-82146100D03*
X218816000Y-80195900D03*
X218816000Y-80846100D03*
X218816000Y-81496100D03*
X218816000Y-82146100D03*
%TD*%
D15*
%TO.C,DA8*%
X228354000Y-85383600D03*
X227084000Y-85383600D03*
X225814000Y-85383600D03*
X224544000Y-85383600D03*
X228354000Y-90928400D03*
X227084000Y-90928400D03*
X225814000Y-90928400D03*
X224544000Y-90928400D03*
%TD*%
D16*
%TO.C,DD1*%
X81727400Y-79647000D03*
X81727400Y-80917000D03*
X81727400Y-82187000D03*
X81727400Y-83457000D03*
X81727400Y-84727000D03*
X81727400Y-85997000D03*
X81727400Y-87267000D03*
X81727400Y-88537000D03*
X87198600Y-79647000D03*
X87198600Y-80917000D03*
X87198600Y-82187000D03*
X87198600Y-83457000D03*
X87198600Y-84727000D03*
X87198600Y-85997000D03*
X87198600Y-87267000D03*
X87198600Y-88537000D03*
%TD*%
D17*
%TO.C,DD2*%
X98002000Y-89430100D03*
X98002000Y-88780100D03*
X98002000Y-88130100D03*
X98002000Y-87480100D03*
X98002000Y-86829900D03*
X98002000Y-86179900D03*
X98002000Y-85529900D03*
X98002000Y-84879900D03*
X98002000Y-84229900D03*
X98002000Y-83579900D03*
X92260000Y-89430100D03*
X92260000Y-88780100D03*
X92260000Y-88130100D03*
X92260000Y-87480100D03*
X92260000Y-86829900D03*
X92260000Y-86179900D03*
X92260000Y-85529900D03*
X92260000Y-84879900D03*
X92260000Y-84229900D03*
X92260000Y-83579900D03*
%TD*%
M02*
