M48
; DRILL file {KiCad 9.0.4} date 2025-10-20T19:52:03+0300
; FORMAT={-:-/ absolute / metric / decimal}
; #@! TF.CreationDate,2025-10-20T19:52:03+03:00
; #@! TF.GenerationSoftware,Kicad,Pcbnew,9.0.4
; #@! TF.FileFunction,Plated,1,2,PTH
FMAT,2
METRIC
; #@! TA.AperFunction,Plated,PTH,ViaDrill
T1C0.305
; #@! TA.AperFunction,Plated,PTH,ComponentDrill
T2C0.889
; #@! TA.AperFunction,Plated,PTH,ComponentDrill
T3C1.700
%
G90
G05
T1
X147.892Y-75.512
X147.892Y-80.592
X147.892Y-90.752
X147.892Y-95.832
X152.972Y-75.512
X152.972Y-80.592
X152.972Y-95.832
X158.052Y-75.512
X158.052Y-80.592
X158.052Y-95.832
X159.974Y-90.904
X163.132Y-75.512
X164.021Y-87.196
X165.054Y-95.984
X168.212Y-75.512
X173.419Y-89.99
X177.102Y-80.973
X181.724Y-91.285
X183.452Y-95.832
X188.532Y-75.512
X188.532Y-90.752
X188.532Y-95.832
X193.612Y-75.512
X193.612Y-90.752
X193.612Y-95.832
X198.692Y-75.512
X198.692Y-90.752
X198.692Y-95.832
X203.772Y-75.512
X203.772Y-90.752
X203.772Y-95.832
X208.852Y-75.512
X208.852Y-85.672
X208.852Y-90.752
X208.852Y-95.832
X213.932Y-85.672
X213.932Y-90.752
X213.932Y-95.832
X215.032Y-77.29
X219.012Y-75.512
X219.012Y-95.832
X224.092Y-75.512
X224.092Y-80.592
X224.092Y-95.832
X229.172Y-75.512
X229.172Y-95.832
T2
X69.731Y-82.695
X69.731Y-85.743
X72.779Y-80.028
X72.906Y-88.029
X74.43Y-107.333
X74.43Y-122.7
X74.43Y-126.383
X74.43Y-130.32
X74.43Y-134.13
X74.557Y-111.27
X74.557Y-115.08
X74.557Y-118.89
X76.335Y-77.488
X76.462Y-90.442
X81.669Y-76.218
X81.669Y-92.22
X84.209Y-106.825
X90.94Y-128.542
X90.94Y-133.749
X96.02Y-94.252
X98.56Y-80.409
X148.979Y-84.219
X152.916Y-77.869
X153.424Y-89.68
X161.552Y-77.615
X221.75Y-91.712
T3
X178.062Y-85.541
X178.062Y-89.501
M30
